<svg width="40" height="41" viewBox="0 0 40 41" fill="none" xmlns="http://www.w3.org/2000/svg">
<g clip-path="url(#clip0_53_521)">
<path d="M38.0105 31.1146C37.6425 30.8938 37.4545 30.7794 37.4545 30.7794C37.1111 31.3436 36.825 31.7523 36.637 32.0221C36.637 32.0221 36.8169 32.1447 37.1685 32.3982C37.3647 32.1202 37.6589 31.695 38.0105 31.1146Z" fill="white"/>
<path d="M37.1685 32.3982C36.8169 32.1448 36.637 32.0222 36.637 32.0222C36.4407 32.2838 36.3425 32.4229 36.3425 32.4229C36.3425 32.4229 36.5142 32.5537 36.8658 32.8072C36.8658 32.8072 36.964 32.6762 37.1685 32.3982Z" fill="#FAFEFF"/>
<path d="M37.4545 30.7792C37.2665 30.6648 37.0784 30.5504 36.8985 30.4441C36.5633 30.9837 36.2853 31.376 36.1055 31.6377C36.2853 31.7685 36.4571 31.8911 36.637 32.022C36.825 31.7521 37.1111 31.3434 37.4545 30.7792Z" fill="white"/>
<path d="M36.6369 32.0221C36.457 31.8913 36.2852 31.7686 36.1054 31.6378C35.9173 31.8994 35.8193 32.0303 35.8193 32.0303C35.9992 32.1611 36.1707 32.292 36.3424 32.4228C36.3424 32.4228 36.4406 32.2837 36.6369 32.0221Z" fill="#FAFEFF"/>
<path d="M36.8986 30.4442C36.7105 30.3297 36.5225 30.2153 36.3426 30.1008C36.0156 30.6322 35.7541 31.0083 35.5742 31.2617C35.7541 31.3925 35.9257 31.5151 36.1055 31.6378C36.2854 31.3761 36.5634 30.9838 36.8986 30.4442Z" fill="white"/>
<path d="M36.1055 31.6377C35.9256 31.515 35.754 31.3924 35.5742 31.2616C35.3943 31.5151 35.3042 31.6377 35.3042 31.6377C35.4759 31.7685 35.6477 31.8994 35.8195 32.0302C35.8195 32.0302 35.9174 31.8993 36.1055 31.6377Z" fill="#FAFEFF"/>
<path d="M36.3426 30.1008C36.3426 30.1008 36.1546 29.9943 35.7866 29.7654C35.476 30.2723 35.2144 30.6403 35.0427 30.8856C35.4025 31.139 35.5742 31.2617 35.5742 31.2617C35.7541 31.0083 36.0156 30.6322 36.3426 30.1008Z" fill="white"/>
<path d="M35.5743 31.2618C35.5743 31.2618 35.4025 31.1392 35.0427 30.8857C34.8711 31.131 34.781 31.2454 34.781 31.2454C35.1326 31.507 35.3043 31.6379 35.3043 31.6379C35.3043 31.6379 35.3944 31.5153 35.5743 31.2618Z" fill="#FAFEFF"/>
<path d="M36.8659 32.807C36.5143 32.5535 36.3426 32.4227 36.3426 32.4227C35.9502 32.946 35.5251 33.4528 35.0754 33.9434C35.0754 33.9434 35.2389 34.0905 35.5578 34.3849C36.0157 33.8779 36.4571 33.3548 36.8659 32.807Z" fill="#FAFEFF"/>
<path d="M36.3427 32.4229C36.1709 32.2921 35.9994 32.1612 35.8196 32.0304C35.4435 32.5373 35.0346 33.0278 34.6013 33.502C34.7567 33.6492 34.9201 33.7964 35.0755 33.9436C35.5251 33.453 35.9502 32.9462 36.3427 32.4229Z" fill="#FAFEFF"/>
<path d="M35.8195 32.0303C35.6478 31.8995 35.476 31.7686 35.3043 31.6378C34.9281 32.1284 34.5359 32.6026 34.1189 33.0604C34.2824 33.2076 34.4378 33.3547 34.6013 33.5019C35.0346 33.0277 35.4434 32.5372 35.8195 32.0303Z" fill="#FAFEFF"/>
<path d="M35.3044 31.6377C35.3044 31.6377 35.1327 31.5068 34.7811 31.2451C34.4214 31.7275 34.0453 32.1855 33.6365 32.6188C33.9635 32.9132 34.119 33.0603 34.119 33.0603C34.536 32.6024 34.9283 32.1282 35.3044 31.6377Z" fill="#FAFEFF"/>
<path d="M35.5577 34.3849C35.2388 34.0906 35.0753 33.9435 35.0753 33.9435C34.6338 34.4258 34.1596 34.8919 33.6609 35.3334C33.6609 35.3334 33.8079 35.4969 34.0941 35.8158C34.6092 35.3661 35.0916 34.8836 35.5577 34.3849Z" fill="#F5FCFF"/>
<path d="M35.0752 33.9435C34.9199 33.7963 34.7564 33.649 34.6011 33.5019C34.1677 33.9679 33.7098 34.4177 33.2356 34.8429C33.3746 35.0064 33.5218 35.17 33.6608 35.3334C34.1595 34.8919 34.6337 34.4259 35.0752 33.9435Z" fill="#F5FCFF"/>
<path d="M34.6014 33.502C34.4379 33.3548 34.2825 33.2077 34.119 33.0605C33.702 33.5184 33.2604 33.9436 32.8025 34.3606C32.9415 34.5159 33.0888 34.6794 33.2359 34.843C33.7101 34.4178 34.1681 33.968 34.6014 33.502Z" fill="#F5FCFF"/>
<path d="M34.1189 33.0603C34.1189 33.0603 33.9634 32.9132 33.6363 32.6188C33.2357 33.0603 32.8106 33.4774 32.3691 33.8698C32.6553 34.1968 32.8024 34.3604 32.8024 34.3604C33.2602 33.9434 33.7019 33.5181 34.1189 33.0603Z" fill="#F5FCFF"/>
<path d="M34.0941 35.8157C33.8079 35.4969 33.6609 35.3333 33.6609 35.3333C33.1703 35.7667 32.6551 36.1836 32.1155 36.5678C32.1155 36.5678 32.2463 36.7478 32.4998 37.0994C33.0557 36.6987 33.5872 36.2736 34.0941 35.8157Z" fill="#EFFBFF"/>
<path d="M33.6612 35.3335C33.5222 35.17 33.375 35.0065 33.236 34.843C32.7536 35.2681 32.2548 35.6687 31.7397 36.0448C31.8624 36.2164 31.9932 36.3964 32.1158 36.568C32.6555 36.1838 33.1706 35.7669 33.6612 35.3335Z" fill="#EFFBFF"/>
<path d="M33.2358 34.8429C33.0886 34.6793 32.9413 34.5158 32.8023 34.3605C32.3363 34.7693 31.854 35.1536 31.3552 35.5134C31.486 35.6932 31.6087 35.8648 31.7395 36.0447C32.2546 35.6686 32.7534 35.268 33.2358 34.8429Z" fill="#EFFBFF"/>
<path d="M32.8022 34.3604C32.8022 34.3604 32.6551 34.1968 32.3689 33.8698C31.9193 34.2623 31.4614 34.6384 30.979 34.99C31.2325 35.3416 31.3551 35.5133 31.3551 35.5133C31.8538 35.1535 32.3361 34.7692 32.8022 34.3604Z" fill="#EFFBFF"/>
<path d="M32.4998 37.0993C32.2463 36.7478 32.1155 36.5678 32.1155 36.5678C32.1155 36.5759 32.1155 36.5759 32.1155 36.5759C32.1155 36.5759 32.2381 36.7476 32.4915 37.0992H32.4996L32.4998 37.0993Z" fill="#E9F9FF"/>
<path d="M32.1155 36.5678C31.9929 36.3962 31.8621 36.2162 31.7395 36.0446H31.7314C31.8623 36.2244 31.9849 36.3962 32.1157 36.5761C32.1157 36.5761 32.1157 36.5761 32.1157 36.568L32.1155 36.5678Z" fill="#E9F9FF"/>
<path d="M31.7395 36.0446C31.6087 35.8648 31.486 35.6932 31.3552 35.5133C31.3552 35.5133 31.3552 35.5214 31.3472 35.5214C31.478 35.693 31.6006 35.8727 31.7315 36.0444H31.7395V36.0446Z" fill="#E9F9FF"/>
<path d="M31.355 35.5133C31.355 35.5133 31.2324 35.3416 30.979 34.9901C30.971 34.9901 30.9709 34.9901 30.9709 34.9901C31.2244 35.3416 31.347 35.5214 31.347 35.5214C31.355 35.5214 31.355 35.5133 31.355 35.5133Z" fill="#E9F9FF"/>
<path d="M32.4918 37.0994C32.2383 36.7478 32.1157 36.5761 32.1157 36.5761C31.5925 36.9522 31.061 37.2956 30.5132 37.6144C30.5132 37.6144 30.6196 37.8025 30.8403 38.1786C31.4045 37.8516 31.9604 37.4918 32.4918 37.0994Z" fill="#E9F9FF"/>
<path d="M32.1155 36.5761C31.9847 36.3962 31.862 36.2244 31.7312 36.0446C31.2325 36.4125 30.7175 36.7477 30.186 37.0584C30.2923 37.2465 30.3985 37.4264 30.513 37.6144C31.0608 37.2955 31.5923 36.9522 32.1155 36.5761Z" fill="#E9F9FF"/>
<path d="M31.7316 36.0446C31.6008 35.8728 31.4781 35.6929 31.3473 35.5213C30.8649 35.8647 30.3662 36.1917 29.8511 36.4942C29.9655 36.6823 30.072 36.8704 30.1864 37.0584C30.7179 36.7477 31.2328 36.4125 31.7316 36.0446Z" fill="#E9F9FF"/>
<path d="M31.3471 35.5214C31.3471 35.5214 31.2245 35.3416 30.971 34.9901C30.505 35.3253 30.0227 35.644 29.5239 35.9301C29.7447 36.3062 29.8509 36.4943 29.8509 36.4943C30.366 36.1918 30.8647 35.8648 31.3471 35.5214Z" fill="#E9F9FF"/>
<path d="M30.8401 38.1786C30.6193 37.8025 30.5129 37.6144 30.5129 37.6144C29.957 37.9415 29.393 38.2357 28.8125 38.4973C28.8125 38.4973 28.9104 38.6936 29.0903 39.0942C29.6872 38.8162 30.2677 38.5139 30.8401 38.1786Z" fill="#E3F8FF"/>
<path d="M30.5129 37.6145C30.3984 37.4265 30.2922 37.2466 30.1859 37.0585C29.6463 37.3692 29.1066 37.6471 28.5425 37.9087C28.6324 38.105 28.7225 38.3012 28.8124 38.4974C29.3929 38.2358 29.9569 37.9415 30.5129 37.6145Z" fill="#E3F8FF"/>
<path d="M30.1859 37.0586C30.0715 36.8706 29.965 36.6825 29.8506 36.4944C29.3437 36.7969 28.8124 37.0669 28.2727 37.3204C28.3627 37.5166 28.4525 37.7126 28.5425 37.9089C29.1066 37.6473 29.6463 37.3693 30.1859 37.0586Z" fill="#E3F8FF"/>
<path d="M29.8507 36.4942C29.8507 36.4942 29.7446 36.3061 29.5238 35.93C29.0333 36.2243 28.5181 36.4862 27.9949 36.7233C28.1829 37.1239 28.2729 37.3202 28.2729 37.3202C28.8125 37.0667 29.3438 36.7967 29.8507 36.4942Z" fill="#E3F8FF"/>
<path d="M29.0904 39.0943C28.9105 38.6937 28.8126 38.4974 28.8126 38.4974C28.2403 38.7672 27.6432 39.0045 27.0464 39.217C27.0464 39.217 27.12 39.4214 27.259 39.8302C27.8804 39.6094 28.4935 39.3641 29.0904 39.0943Z" fill="#DDF6FF"/>
<path d="M28.8125 38.4973C28.7226 38.3011 28.6325 38.1049 28.5426 37.9086C27.9866 38.1703 27.4142 38.3992 26.8337 38.6036C26.8991 38.808 26.9728 39.0125 27.0463 39.2169C27.6432 39.0044 28.2402 38.7671 28.8125 38.4973Z" fill="#DDF6FF"/>
<path d="M28.5423 37.9087C28.4523 37.7124 28.3625 37.5164 28.2725 37.3202C27.7329 37.5655 27.1769 37.7942 26.6128 37.9905C26.6864 38.1949 26.7599 38.3992 26.8334 38.6036C27.4139 38.3992 27.9863 38.1703 28.5423 37.9087Z" fill="#DDF6FF"/>
<path d="M28.2725 37.3204C28.2725 37.3204 28.1825 37.1241 27.9945 36.7235C27.4794 36.9688 26.9398 37.1813 26.4001 37.3693C26.5473 37.7863 26.6127 37.9907 26.6127 37.9907C27.1769 37.7944 27.7328 37.5657 28.2725 37.3204Z" fill="#DDF6FF"/>
<path d="M27.2591 39.8303C27.1201 39.4215 27.0465 39.2172 27.0465 39.2172C26.4415 39.4297 25.8365 39.6095 25.2151 39.7567C25.2151 39.7567 25.2642 39.9694 25.3705 40.3945C26.0082 40.231 26.6377 40.0511 27.2591 39.8303Z" fill="#D7F4FF"/>
<path d="M27.0464 39.2171C26.9729 39.0127 26.8992 38.8082 26.8338 38.6037C26.2533 38.8082 25.6566 38.9798 25.0598 39.127C25.1088 39.3396 25.166 39.5522 25.2151 39.7566C25.8365 39.6094 26.4414 39.4296 27.0464 39.2171Z" fill="#D7F4FF"/>
<path d="M26.8338 38.6037C26.7602 38.3993 26.6867 38.195 26.6131 37.9906C26.0572 38.1868 25.4848 38.3503 24.9043 38.4974C24.9534 38.7018 25.0107 38.9144 25.0597 39.127C25.6566 38.9798 26.2533 38.8081 26.8338 38.6037Z" fill="#D7F4FF"/>
<path d="M26.6131 37.9906C26.6131 37.9906 26.5476 37.7862 26.4005 37.3692C25.8608 37.5655 25.3048 37.729 24.7488 37.8598C24.8551 38.2849 24.9042 38.4974 24.9042 38.4974C25.4847 38.3503 26.0571 38.1868 26.6131 37.9906Z" fill="#D7F4FF"/>
<path d="M25.3703 40.3944C25.264 39.9693 25.2148 39.7566 25.2148 39.7566C25.2148 39.7566 25.2068 39.7566 25.2068 39.7646C25.2068 39.7646 25.2559 39.9691 25.3622 40.3942H25.3703V40.3944Z" fill="#D1F2FF"/>
<path d="M25.2148 39.7566C25.1657 39.5522 25.1086 39.3396 25.0595 39.127H25.0515C25.1005 39.3396 25.1577 39.5522 25.2068 39.7648C25.2068 39.7568 25.2148 39.7568 25.2148 39.7568V39.7566Z" fill="#D1F2FF"/>
<path d="M25.0597 39.127C25.0106 38.9144 24.9533 38.7018 24.9043 38.4974H24.8962C24.9453 38.71 25.0026 38.9144 25.0517 39.127H25.0597Z" fill="#D1F2FF"/>
<path d="M24.9042 38.4975C24.9042 38.4975 24.8551 38.285 24.7487 37.8599L24.7407 37.8679C24.847 38.2849 24.8962 38.4975 24.8962 38.4975H24.9042Z" fill="#D1F2FF"/>
<path d="M25.362 40.3944C25.2557 39.9692 25.2066 39.7648 25.2066 39.7648C24.2827 39.9856 23.3344 40.149 22.386 40.2389C22.386 40.2389 22.4104 40.4598 22.4514 40.885C23.4325 40.795 24.4054 40.6315 25.362 40.3944Z" fill="#D1F2FF"/>
<path d="M22.4513 40.8851C22.4104 40.4599 22.3859 40.239 22.3859 40.239C21.4375 40.329 20.4808 40.3535 19.5324 40.3127C19.5324 40.3127 19.5244 40.5252 19.4995 40.9585C20.4806 41.0076 21.4699 40.9831 22.4511 40.8851H22.4513Z" fill="#C9F0FF"/>
<path d="M25.2068 39.7648C25.1578 39.5522 25.1006 39.3396 25.0516 39.127C24.1522 39.3477 23.2446 39.5031 22.3289 39.5931C22.3453 39.8057 22.3699 40.0264 22.3862 40.2389C23.3347 40.149 24.283 39.9855 25.2068 39.7648Z" fill="#D1F2FF"/>
<path d="M22.3863 40.2389C22.3698 40.0263 22.3452 39.8056 22.3289 39.593C21.405 39.6829 20.4812 39.7075 19.5655 39.6584C19.549 39.8792 19.541 40.0917 19.533 40.3125C20.4814 40.3534 21.438 40.3289 22.3864 40.2389H22.3863Z" fill="#C9F0FF"/>
<path d="M25.0513 39.127C25.0022 38.9144 24.9449 38.71 24.8958 38.4974C24.0292 38.71 23.1462 38.8572 22.2632 38.9471C22.2796 39.1597 22.304 39.3805 22.3286 39.5931C23.2443 39.5031 24.1519 39.3477 25.0513 39.127Z" fill="#D1F2FF"/>
<path d="M22.3286 39.593C22.3042 39.3804 22.2796 39.1596 22.2632 38.947C21.372 39.0288 20.4808 39.0534 19.5897 39.0126C19.5816 39.2251 19.5732 39.4458 19.5652 39.6584C20.4809 39.7075 21.4049 39.6829 22.3288 39.593H22.3286Z" fill="#C9F0FF"/>
<path d="M24.8963 38.4975C24.8963 38.4975 24.8473 38.2851 24.741 37.8681C23.9071 38.0725 23.0567 38.2114 22.1982 38.2931C22.2391 38.7265 22.2636 38.9472 22.2636 38.9472C23.1467 38.8573 24.0296 38.7101 24.8963 38.4975Z" fill="#D1F2FF"/>
<path d="M22.2634 38.9471C22.2634 38.9471 22.2389 38.7264 22.198 38.293C21.3477 38.383 20.481 38.3993 19.6225 38.3584C19.6061 38.7918 19.5896 39.0127 19.5896 39.0127C20.4808 39.0535 21.372 39.029 22.2632 38.9471H22.2634Z" fill="#C9F0FF"/>
<path d="M19.4999 40.9583C19.5244 40.525 19.5328 40.3125 19.5328 40.3125C18.895 40.2796 18.2491 40.2226 17.6196 40.1245C17.6196 40.1245 17.5868 40.3371 17.5215 40.7704C18.1756 40.8685 18.8378 40.9256 19.5001 40.9583H19.4999Z" fill="#BEEDFF"/>
<path d="M19.533 40.3125C19.5411 40.0917 19.5495 39.8792 19.5655 39.6584C18.9442 39.634 18.3227 39.5684 17.7095 39.4785C17.685 39.6993 17.6523 39.912 17.6196 40.1245C18.2492 40.2227 18.8951 40.2798 19.5329 40.3125H19.533Z" fill="#BEEDFF"/>
<path d="M19.5655 39.6585C19.5736 39.4459 19.582 39.2252 19.59 39.0127C18.9931 38.9798 18.3962 38.9228 17.8076 38.841C17.7747 39.0535 17.7421 39.266 17.7095 39.4786C18.3227 39.5685 18.944 39.634 19.5653 39.6585H19.5655Z" fill="#BEEDFF"/>
<path d="M19.5899 39.0127C19.5899 39.0127 19.6063 38.7918 19.6228 38.3584C19.0504 38.334 18.47 38.2767 17.8977 38.1949C17.8405 38.6201 17.8076 38.841 17.8076 38.841C18.3963 38.9228 18.9932 38.9799 19.5901 39.0127H19.5899Z" fill="#BEEDFF"/>
<path d="M17.5212 40.7704C17.5866 40.3371 17.6193 40.1245 17.6193 40.1245H17.6113C17.6113 40.1245 17.5785 40.3371 17.5132 40.7704C17.5212 40.7704 17.5212 40.7704 17.5212 40.7704Z" fill="#B8EBFF"/>
<path d="M17.6194 40.1245C17.6522 39.912 17.6847 39.6993 17.7092 39.4785C17.7092 39.4785 17.7092 39.4785 17.7012 39.4785C17.6767 39.6993 17.644 39.912 17.6113 40.1245H17.6194Z" fill="#B8EBFF"/>
<path d="M17.7092 39.4786C17.7417 39.266 17.7748 39.0535 17.8075 38.841H17.7994C17.7666 39.0535 17.7339 39.266 17.7012 39.4786C17.7092 39.4786 17.7092 39.4786 17.7092 39.4786Z" fill="#B8EBFF"/>
<path d="M17.8076 38.841C17.8076 38.841 17.8404 38.6201 17.8974 38.1949C17.8974 38.1949 17.8974 38.1949 17.8894 38.1949C17.8322 38.6201 17.7996 38.841 17.7996 38.841H17.8076Z" fill="#B8EBFF"/>
<path d="M17.5131 40.7705C17.5785 40.3372 17.6112 40.1247 17.6112 40.1247C16.9571 40.0266 16.3111 39.904 15.6653 39.7404C15.6653 39.7404 15.5999 39.953 15.51 40.37C16.1723 40.5417 16.8427 40.6724 17.5131 40.7705Z" fill="#B8EBFF"/>
<path d="M15.51 40.3698C15.6 39.9528 15.6653 39.7402 15.6653 39.7402C15.0275 39.5768 14.3981 39.3885 13.7767 39.1596C13.7767 39.1596 13.6949 39.3723 13.5559 39.7729C14.1937 40.0019 14.8478 40.2063 15.51 40.3698Z" fill="#B3E9FF"/>
<path d="M13.556 39.773C13.695 39.3724 13.7768 39.1597 13.7768 39.1597C13.1554 38.939 12.5422 38.6855 11.9454 38.3994C11.9454 38.3994 11.8635 38.6037 11.6672 38.988C12.2805 39.2823 12.9101 39.5441 13.556 39.773Z" fill="#AAE7FF"/>
<path d="M11.6671 38.988C11.8633 38.6037 11.9453 38.3993 11.9453 38.3993C11.3484 38.1132 10.7679 37.8024 10.2038 37.459C10.2038 37.459 10.0973 37.6391 9.86841 38.0152C10.4489 38.3668 11.0539 38.6937 11.6671 38.988Z" fill="#A1E5FF"/>
<path d="M17.611 40.1247C17.6438 39.9121 17.6765 39.6994 17.701 39.4787C17.0714 39.3887 16.4419 39.2662 15.8287 39.1108C15.7797 39.3152 15.7141 39.5279 15.665 39.7404C16.3109 39.904 16.9568 40.0266 17.611 40.1247Z" fill="#B8EBFF"/>
<path d="M15.6654 39.7402C15.7144 39.5277 15.78 39.315 15.8291 39.1106C15.2077 38.9553 14.5943 38.7672 13.9975 38.5464C13.9239 38.7508 13.8422 38.9634 13.7769 39.1596C14.3982 39.3885 15.0277 39.5767 15.6654 39.7402Z" fill="#B3E9FF"/>
<path d="M13.7767 39.1596C13.8421 38.9634 13.9237 38.7509 13.9973 38.5465C13.3923 38.3339 12.8037 38.0886 12.2313 37.8106C12.125 37.9987 12.0434 38.2112 11.9453 38.3992C12.5421 38.6854 13.1553 38.9389 13.7767 39.1596Z" fill="#AAE7FF"/>
<path d="M11.9454 38.3994C12.0435 38.2114 12.1251 37.9988 12.2314 37.8108C11.6509 37.5328 11.0868 37.2302 10.5472 36.9032C10.4328 37.0831 10.3183 37.2711 10.2039 37.4592C10.768 37.8026 11.3485 38.1133 11.9454 38.3994Z" fill="#A1E5FF"/>
<path d="M17.7012 39.4787C17.734 39.266 17.7665 39.0536 17.7992 38.841C17.186 38.7511 16.581 38.6284 15.9841 38.4812C15.9432 38.6857 15.8698 38.8982 15.8289 39.1108C16.4421 39.2661 17.0716 39.3887 17.7012 39.4787Z" fill="#B8EBFF"/>
<path d="M15.8287 39.1107C15.8696 38.8981 15.943 38.6855 15.9839 38.4811C15.387 38.3258 14.7984 38.1459 14.2179 37.9333C14.1443 38.1377 14.0625 38.3502 13.9971 38.5465C14.5939 38.7672 15.2073 38.9553 15.8287 39.1107Z" fill="#B3E9FF"/>
<path d="M13.997 38.5466C14.0624 38.3504 14.1442 38.1379 14.2178 37.9335C13.6373 37.7291 13.0649 37.4919 12.5089 37.2221C12.4108 37.4101 12.3291 37.6227 12.231 37.8107C12.8033 38.0887 13.3919 38.3341 13.997 38.5466Z" fill="#AAE7FF"/>
<path d="M12.2311 37.8106C12.3292 37.6225 12.4109 37.4099 12.509 37.2219C11.9531 36.9602 11.4053 36.6659 10.882 36.347C10.7676 36.5269 10.6532 36.715 10.5469 36.903C11.0865 37.23 11.6505 37.5326 12.2311 37.8106Z" fill="#A1E5FF"/>
<path d="M17.7998 38.8411C17.7998 38.8411 17.8326 38.6202 17.8896 38.195C17.3009 38.1051 16.7205 37.9906 16.1401 37.8434C16.0583 38.2686 15.9846 38.4813 15.9846 38.4813C16.5815 38.6284 17.1865 38.7511 17.7998 38.8411Z" fill="#B8EBFF"/>
<path d="M15.9838 38.4813C15.9838 38.4813 16.0574 38.2686 16.1392 37.8435C15.5669 37.7045 14.9946 37.5246 14.4386 37.3284C14.2914 37.729 14.2178 37.9335 14.2178 37.9335C14.7982 38.1461 15.3869 38.3259 15.9838 38.4813Z" fill="#B3E9FF"/>
<path d="M14.2184 37.9334C14.2184 37.9334 14.292 37.7289 14.4392 37.3283C13.875 37.1239 13.3272 36.8949 12.7875 36.6333C12.5913 37.0176 12.5095 37.222 12.5095 37.222C13.0655 37.4918 13.6379 37.729 14.2184 37.9334Z" fill="#AAE7FF"/>
<path d="M12.5091 37.2221C12.5091 37.2221 12.5909 37.0177 12.7871 36.6334C12.2556 36.38 11.7242 36.094 11.2172 35.7832C10.9965 36.1593 10.8821 36.3472 10.8821 36.3472C11.4054 36.6661 11.9531 36.9605 12.5091 37.2221Z" fill="#A1E5FF"/>
<path d="M9.86862 38.0153C10.0976 37.6392 10.204 37.4592 10.204 37.4592V37.4511C10.204 37.4511 10.0895 37.6392 9.8606 38.0071L9.86862 38.0151V38.0153Z" fill="#9DE4FF"/>
<path d="M10.2039 37.459C10.3183 37.2709 10.4328 37.0829 10.5472 36.903C10.5392 36.895 10.5392 36.895 10.5392 36.895C10.4247 37.083 10.3101 37.2631 10.2039 37.4511V37.4592V37.459Z" fill="#9DE4FF"/>
<path d="M10.5471 36.9031C10.6534 36.715 10.7678 36.527 10.8822 36.3471C10.8822 36.3391 10.8742 36.3391 10.8742 36.3391C10.7597 36.5272 10.6535 36.707 10.5391 36.8951C10.5391 36.8951 10.5391 36.8951 10.5471 36.9031Z" fill="#9DE4FF"/>
<path d="M10.8823 36.3472C10.8823 36.3472 10.9967 36.1593 11.2174 35.7832C11.2174 35.7832 11.2174 35.7832 11.2094 35.7832C10.9887 36.1512 10.8743 36.3392 10.8743 36.3392C10.8743 36.3392 10.8823 36.3392 10.8823 36.3472Z" fill="#9DE4FF"/>
<path d="M9.86032 38.0069C10.0892 37.639 10.2037 37.4509 10.2037 37.4509C9.63137 37.1075 9.09167 36.7395 8.56024 36.347C8.56024 36.347 8.41301 36.5107 8.16772 36.8623C8.71551 37.2711 9.27981 37.6553 9.86032 38.0069Z" fill="#9DE4FF"/>
<path d="M8.16804 36.8624C8.41333 36.5108 8.56055 36.3471 8.56055 36.3471C8.02908 35.9465 7.52224 35.5215 7.03984 35.0799C7.03984 35.0799 6.88457 35.2434 6.59839 35.5541C7.09714 36.0201 7.62843 36.4535 8.16804 36.8624Z" fill="#98E2FF"/>
<path d="M6.59809 35.554C6.88427 35.2433 7.03954 35.0798 7.03954 35.0798C6.54897 34.6302 6.09115 34.156 5.6496 33.6654C5.6496 33.6654 5.49427 33.8207 5.16724 34.0987C5.61692 34.6056 6.09934 35.0961 6.59809 35.554Z" fill="#8FE0FF"/>
<path d="M5.16743 34.0988C5.49447 33.8209 5.6498 33.6656 5.6498 33.6656C5.20829 33.175 4.79939 32.6598 4.4151 32.1202C4.4151 32.1202 4.23536 32.2511 3.88379 32.5045C4.28444 33.0523 4.70957 33.5837 5.16743 34.0988Z" fill="#86DDFF"/>
<path d="M10.2035 37.451C10.3098 37.263 10.4242 37.0831 10.5387 36.8951C9.99088 36.568 9.4595 36.2083 8.95257 35.824C8.82993 35.9957 8.6827 36.1673 8.56006 36.3471C9.09149 36.7396 9.63119 37.1077 10.2035 37.451Z" fill="#9DE4FF"/>
<path d="M8.56002 36.347C8.68266 36.1672 8.82989 35.9956 8.95253 35.8239C8.43746 35.4397 7.9468 35.0308 7.48076 34.5975C7.33362 34.7528 7.18649 34.9245 7.03931 35.0798C7.5217 35.5214 8.02855 35.9464 8.56002 36.347Z" fill="#98E2FF"/>
<path d="M7.03984 35.0798C7.18702 34.9245 7.33415 34.7528 7.48129 34.5975C7.00708 34.1641 6.55746 33.7062 6.14049 33.232C5.96881 33.371 5.81344 33.5264 5.6499 33.6654C6.09145 34.156 6.54927 34.6301 7.03984 35.0798Z" fill="#8FE0FF"/>
<path d="M5.64974 33.6655C5.81328 33.5265 5.96865 33.3711 6.14033 33.2321C5.71518 32.7579 5.31439 32.2591 4.93832 31.7358C4.7666 31.8667 4.58676 31.9893 4.41504 32.1201C4.79933 32.6597 5.20823 33.1749 5.64974 33.6655Z" fill="#86DDFF"/>
<path d="M10.539 36.8951C10.6534 36.707 10.7597 36.5272 10.8741 36.3391C10.3509 36.0202 9.83573 35.6768 9.3452 35.3008C9.22255 35.4806 9.07553 35.6442 8.95288 35.824C9.45982 36.2083 9.99119 36.568 10.539 36.8951Z" fill="#9DE4FF"/>
<path d="M8.95273 35.8241C9.07537 35.6443 9.2224 35.4807 9.34504 35.3009C8.84629 34.9329 8.37209 34.5404 7.92241 34.1153C7.77527 34.2788 7.61996 34.4423 7.48096 34.5977C7.947 35.031 8.43765 35.4398 8.95273 35.8241Z" fill="#98E2FF"/>
<path d="M7.48094 34.5976C7.61994 34.4422 7.77525 34.2787 7.92239 34.1152C7.46453 33.6982 7.03129 33.2649 6.6225 32.7989C6.45897 32.9378 6.30368 33.0931 6.14014 33.2321C6.5571 33.7063 7.00672 34.1642 7.48094 34.5976Z" fill="#8FE0FF"/>
<path d="M6.13999 33.232C6.30353 33.093 6.45882 32.9377 6.62236 32.7987C6.21353 32.3409 5.82925 31.8584 5.46949 31.3596C5.28964 31.4823 5.11785 31.6131 4.93799 31.7357C5.31406 32.259 5.71485 32.7577 6.13999 33.232Z" fill="#86DDFF"/>
<path d="M10.8741 36.339C10.8741 36.339 10.9887 36.151 11.2095 35.783C10.7026 35.4723 10.2119 35.137 9.7295 34.7854C9.48426 35.137 9.34521 35.3007 9.34521 35.3007C9.83575 35.6767 10.3509 36.0201 10.8741 36.339Z" fill="#9DE4FF"/>
<path d="M9.34524 35.3006C9.34524 35.3006 9.48428 35.137 9.72953 34.7854C9.25535 34.4256 8.79762 34.0414 8.36426 33.6407C8.06993 33.9514 7.92261 34.1151 7.92261 34.1151C8.37229 34.5402 8.84648 34.9327 9.34524 35.3006Z" fill="#98E2FF"/>
<path d="M7.92245 34.1152C7.92245 34.1152 8.06977 33.9515 8.36409 33.6408C7.92259 33.2402 7.50562 32.8151 7.11315 32.3654C6.77793 32.6434 6.62256 32.7988 6.62256 32.7988C7.03135 33.2649 7.46458 33.6982 7.92245 34.1152Z" fill="#8FE0FF"/>
<path d="M6.62235 32.799C6.62235 32.799 6.77772 32.6435 7.11294 32.3656C6.71233 31.924 6.34434 31.458 5.99277 30.9756C5.64123 31.2291 5.46948 31.3599 5.46948 31.3599C5.82924 31.8587 6.21352 32.3411 6.62235 32.799Z" fill="#86DDFF"/>
<path d="M3.88351 32.5043C4.23509 32.2509 4.41482 32.1201 4.41482 32.1201C4.40681 32.1201 4.4068 32.112 4.4068 32.112C4.4068 32.112 4.22706 32.2429 3.87549 32.4963C3.88351 32.4963 3.88351 32.4963 3.88351 32.5043Z" fill="#82DCFF"/>
<path d="M4.41476 32.1201C4.58648 31.9893 4.76633 31.8667 4.93805 31.7358C4.93805 31.7358 4.93824 31.7358 4.93022 31.7358C4.7585 31.8585 4.57846 31.9895 4.40674 32.1121C4.40674 32.1121 4.40675 32.1201 4.41476 32.1201Z" fill="#82DCFF"/>
<path d="M4.93849 31.7358C5.11835 31.6132 5.29014 31.4824 5.47 31.3598C5.46198 31.3598 5.46197 31.3517 5.46197 31.3517C5.2903 31.4826 5.11052 31.6052 4.93066 31.736C4.93868 31.736 4.93849 31.736 4.93849 31.736V31.7358Z" fill="#82DCFF"/>
<path d="M5.46989 31.3597C5.46989 31.3597 5.64164 31.2289 5.99318 30.9754C5.99318 30.9754 5.99318 30.9754 5.99318 30.9674C5.64164 31.2208 5.46167 31.3517 5.46167 31.3517C5.46167 31.3517 5.46168 31.3597 5.4697 31.3597H5.46989Z" fill="#82DCFF"/>
<path d="M3.87524 32.4962C4.22681 32.2428 4.40674 32.1121 4.40674 32.1121C4.03067 31.597 3.68726 31.0655 3.3684 30.5096C3.3684 30.5096 3.16391 30.6076 2.8042 30.8365C3.13124 31.4088 3.49099 31.9648 3.87524 32.4962Z" fill="#82DCFF"/>
<path d="M2.80422 30.8365C3.16394 30.6075 3.36842 30.5095 3.36842 30.5095C3.04138 29.9618 2.74697 29.3975 2.48532 28.817C2.48532 28.817 2.28086 28.9152 1.88843 29.0869C2.16639 29.6919 2.46901 30.2723 2.80422 30.8365Z" fill="#7DDAFF"/>
<path d="M1.88872 29.087C2.28115 28.9152 2.48561 28.817 2.48561 28.817C2.21582 28.2365 1.97874 27.6478 1.76617 27.051C1.76617 27.051 1.56166 27.1328 1.15283 27.2636C1.3654 27.885 1.61889 28.4901 1.88872 29.087Z" fill="#74D8FF"/>
<path d="M1.15238 27.2635C1.56121 27.1327 1.76572 27.0509 1.76572 27.0509C1.55314 26.4458 1.37313 25.8327 1.22599 25.2195C1.22599 25.2195 1.01352 25.2686 0.588379 25.3749C0.743739 26.0127 0.93163 26.6421 1.15238 27.2635Z" fill="#6BD6FF"/>
<path d="M4.40675 32.1121C4.57847 31.9895 4.75832 31.8585 4.93003 31.7358C4.57028 31.2371 4.23506 30.7139 3.92438 30.1824C3.74449 30.2969 3.54827 30.3951 3.36841 30.5096C3.68727 31.0655 4.03068 31.597 4.40675 32.1121Z" fill="#82DCFF"/>
<path d="M3.36845 30.5095C3.54831 30.395 3.74453 30.2968 3.92443 30.1824C3.61371 29.6509 3.32749 29.1031 3.07402 28.5471C2.87781 28.637 2.67343 28.727 2.48535 28.8169C2.747 29.3974 3.04141 29.9617 3.36845 30.5095Z" fill="#7DDAFF"/>
<path d="M2.48555 28.817C2.67363 28.7271 2.87801 28.6372 3.07422 28.5473C2.81262 27.9831 2.58369 27.4109 2.37925 26.8304C2.17486 26.8958 1.97051 26.9856 1.76611 27.051C1.97869 27.6479 2.21577 28.2365 2.48555 28.817Z" fill="#74D8FF"/>
<path d="M1.76605 27.0511C1.97044 26.9857 2.17479 26.8959 2.37919 26.8305C2.17479 26.25 2.00308 25.6613 1.8559 25.0645C1.64333 25.1135 1.43071 25.1624 1.22632 25.2197C1.37346 25.8329 1.55347 26.446 1.76605 27.0511Z" fill="#6BD6FF"/>
<path d="M4.92997 31.736C5.10982 31.6051 5.2896 31.4825 5.46128 31.3517C5.1097 30.8693 4.79082 30.3707 4.48832 29.8556C4.30842 29.9701 4.10417 30.0681 3.92432 30.1826C4.235 30.714 4.57021 31.2372 4.92997 31.736Z" fill="#82DCFF"/>
<path d="M3.92438 30.1826C4.10424 30.0681 4.30849 29.9701 4.48839 29.8556C4.18584 29.3405 3.91611 28.8171 3.66264 28.2693C3.46643 28.3593 3.27019 28.4574 3.07397 28.5473C3.32744 29.1033 3.61366 29.6511 3.92438 30.1826Z" fill="#7DDAFF"/>
<path d="M3.07412 28.5473C3.27033 28.4574 3.46657 28.3592 3.66279 28.2693C3.4175 27.7297 3.1887 27.182 2.99249 26.6178C2.78809 26.6833 2.58358 26.7732 2.37915 26.8304C2.58358 27.4109 2.81251 27.9832 3.07412 28.5473Z" fill="#74D8FF"/>
<path d="M2.37924 26.8303C2.58367 26.773 2.78818 26.6831 2.99258 26.6177C2.79636 26.0535 2.63272 25.4811 2.48554 24.9088C2.27297 24.9579 2.06853 25.007 1.85596 25.0643C2.00314 25.6611 2.17485 26.2498 2.37924 26.8303Z" fill="#6BD6FF"/>
<path d="M5.46173 31.3517C5.46173 31.3517 5.6417 31.221 5.99323 30.9676C5.64984 30.5015 5.33911 30.0272 5.05297 29.5285C4.68503 29.7574 4.48877 29.8556 4.48877 29.8556C4.79127 30.3707 5.11015 30.8693 5.46173 31.3517Z" fill="#82DCFF"/>
<path d="M4.48883 29.8555C4.48883 29.8555 4.68509 29.7573 5.05303 29.5284C4.75866 29.0297 4.49704 28.5228 4.25175 27.9995C3.86746 28.1794 3.66309 28.2692 3.66309 28.2692C3.91655 28.817 4.18629 29.3404 4.48883 29.8555Z" fill="#7DDAFF"/>
<path d="M3.66298 28.2693C3.66298 28.2693 3.86736 28.1795 4.25165 27.9996C4.01454 27.4763 3.80203 26.9449 3.60582 26.4052C3.19699 26.5279 2.99268 26.6178 2.99268 26.6178C3.18889 27.182 3.41769 27.7297 3.66298 28.2693Z" fill="#74D8FF"/>
<path d="M2.99239 26.6179C2.99239 26.6179 3.1967 26.5279 3.60553 26.4053C3.41745 25.8575 3.25398 25.3098 3.12316 24.7538C2.69801 24.8519 2.48535 24.909 2.48535 24.909C2.63253 25.4814 2.79617 26.0537 2.99239 26.6179Z" fill="#6BD6FF"/>
<path d="M0.588379 25.375C1.01352 25.2687 1.22599 25.2196 1.22599 25.2196C1.21797 25.2116 1.21816 25.2115 1.21816 25.2115C1.21816 25.2115 1.01372 25.2607 0.588575 25.367C0.588575 25.367 0.588575 25.367 0.588575 25.375H0.588379Z" fill="#67D5FF"/>
<path d="M1.22604 25.2195C1.43044 25.1622 1.64306 25.1133 1.85563 25.0642C1.85563 25.0562 1.85563 25.0562 1.85563 25.0562C1.64306 25.1053 1.43059 25.1542 1.21802 25.2115C1.21802 25.2115 1.21803 25.2115 1.22604 25.2195Z" fill="#67D5FF"/>
<path d="M1.85596 25.0643C2.06853 25.0071 2.27297 24.958 2.48554 24.9089C2.48554 24.9009 2.48554 24.9009 2.48554 24.9009C2.27297 24.9499 2.06035 24.9989 1.85596 25.0561C1.85596 25.0561 1.85596 25.0561 1.85596 25.0641V25.0643Z" fill="#67D5FF"/>
<path d="M2.48535 24.9088C2.48535 24.9088 2.69801 24.8516 3.12316 24.7535C3.11514 24.7455 3.11513 24.7455 3.11513 24.7455C2.69817 24.8436 2.48555 24.9008 2.48555 24.9008C2.48555 24.9008 2.48555 24.9008 2.48555 24.9088H2.48535Z" fill="#67D5FF"/>
<path d="M0.588735 25.3668C1.01388 25.2605 1.21832 25.2113 1.21832 25.2113C0.997567 24.2793 0.833906 23.3391 0.743977 22.3907C0.743977 22.3907 0.52329 22.4152 0.0981445 22.4561C0.188073 23.4291 0.351625 24.4102 0.588735 25.3668Z" fill="#67D5FF"/>
<path d="M0.09811 22.4561C0.523255 22.4152 0.743942 22.3907 0.743942 22.3907C0.654014 21.4422 0.62948 20.4856 0.670334 19.529C0.670334 19.529 0.457826 19.5209 0.0245019 19.5045C-0.0245318 20.4856 4.27142e-05 21.4749 0.09811 22.4561Z" fill="#5FD2FF"/>
<path d="M1.21848 25.2114C1.43105 25.1542 1.64352 25.1053 1.85609 25.0562C1.63534 24.1568 1.4801 23.2492 1.39017 22.3253C1.1776 22.3497 0.956713 22.3663 0.744141 22.3908C0.834069 23.3392 0.99773 24.2794 1.21848 25.2114Z" fill="#67D5FF"/>
<path d="M0.744144 22.3908C0.956716 22.3663 1.1776 22.3497 1.39017 22.3252C1.30024 21.4095 1.27571 20.4857 1.32479 19.5618C1.10403 19.5537 0.891327 19.5453 0.670536 19.5289C0.629681 20.4855 0.654095 21.4421 0.744144 22.3906V22.3908Z" fill="#5FD2FF"/>
<path d="M1.85582 25.0561C2.06021 24.9989 2.27283 24.9497 2.4854 24.9007C2.27283 24.034 2.12569 23.151 2.03573 22.268C1.82315 22.2844 1.60247 22.3088 1.38989 22.3252C1.47982 23.2491 1.63506 24.1567 1.85582 25.0561Z" fill="#67D5FF"/>
<path d="M1.39002 22.3251C1.6026 22.3086 1.82328 22.2843 2.03586 22.2679C1.95411 21.3767 1.92958 20.4855 1.97047 19.5943C1.7579 19.5863 1.53721 19.5699 1.32464 19.5614C1.27556 20.4853 1.30018 21.4091 1.39002 22.3249V22.3251Z" fill="#5FD2FF"/>
<path d="M2.48532 24.9006C2.48532 24.9006 2.69794 24.8434 3.1149 24.7453C2.91051 23.9113 2.7716 23.061 2.68167 22.2025C2.25649 22.2434 2.03564 22.2679 2.03564 22.2679C2.12561 23.1509 2.27275 24.0339 2.48532 24.9006Z" fill="#67D5FF"/>
<path d="M2.03576 22.2681C2.03576 22.2681 2.2566 22.2437 2.68179 22.2027C2.6 21.3443 2.58357 20.4858 2.62443 19.6272C2.1911 19.6028 1.97037 19.5944 1.97037 19.5944C1.92948 20.4856 1.95393 21.3768 2.03576 22.2679V22.2681Z" fill="#5FD2FF"/>
<path d="M0.0246582 19.5047C0.457982 19.5211 0.670491 19.5291 0.670491 19.5291C0.703367 18.8914 0.760515 18.2536 0.858622 17.6159C0.858622 17.6159 0.637935 17.5913 0.212789 17.5258C0.114642 18.1799 0.0491951 18.8422 0.0246582 19.5045V19.5047Z" fill="#53CFFF"/>
<path d="M0.67041 19.529C0.891202 19.5455 1.10391 19.5535 1.32466 19.5619C1.34912 18.9405 1.4146 18.3273 1.49635 17.7141C1.28377 17.6812 1.07111 17.6487 0.858541 17.616C0.760434 18.2537 0.703126 18.8915 0.67041 19.5292V19.529Z" fill="#53CFFF"/>
<path d="M1.32471 19.5617C1.53728 19.5697 1.75797 19.5862 1.97054 19.5946C2.00342 18.9978 2.06048 18.401 2.14223 17.8041C1.92965 17.7797 1.71715 17.7468 1.49639 17.7141C1.41464 18.3273 1.3492 18.9405 1.32471 19.5619V19.5617Z" fill="#53CFFF"/>
<path d="M1.9707 19.5945C1.9707 19.5945 2.19143 19.6026 2.62476 19.6274C2.64921 19.0469 2.70643 18.4747 2.78822 17.9023C2.3549 17.8369 2.14239 17.8043 2.14239 17.8043C2.06064 18.4011 2.00342 18.9979 1.9707 19.5947V19.5945Z" fill="#53CFFF"/>
<path d="M0.212646 17.526C0.637792 17.5914 0.858479 17.6158 0.858479 17.6158C0.858479 17.6158 0.858479 17.6158 0.858479 17.6078C0.858479 17.6078 0.645971 17.5834 0.212646 17.5179V17.526Z" fill="#4DCDFF"/>
<path d="M0.858594 17.6158C1.07117 17.6487 1.28383 17.6812 1.4964 17.7139C1.50442 17.7139 1.50443 17.7059 1.50443 17.7059C1.28368 17.673 1.07097 17.6405 0.858398 17.6078C0.858398 17.6158 0.858398 17.6158 0.858398 17.6158H0.858594Z" fill="#4DCDFF"/>
<path d="M1.49658 17.7139C1.71733 17.7468 1.92984 17.7795 2.14241 17.804C1.92984 17.7711 1.71718 17.7386 1.50461 17.7059C1.50461 17.7059 1.5046 17.7139 1.49658 17.7139Z" fill="#4DCDFF"/>
<path d="M2.14209 17.8039C2.14209 17.8039 2.3546 17.8368 2.78792 17.902V17.894C2.36278 17.8285 2.14209 17.8039 2.14209 17.8039Z" fill="#4DCDFF"/>
<path d="M0.212646 17.5176C0.645971 17.583 0.858479 17.6075 0.858479 17.6075C0.923872 17.1742 0.997445 16.7327 1.09555 16.2994C1.09555 16.2994 0.882931 16.2503 0.457746 16.1604C0.359638 16.6101 0.286217 17.0598 0.212646 17.5176Z" fill="#4DCDFF"/>
<path d="M0.858643 17.6077C1.07122 17.6406 1.28372 17.6733 1.50448 17.706C1.56991 17.2808 1.64359 16.8555 1.73352 16.4304C1.52095 16.3895 1.30829 16.3404 1.09572 16.2996C0.997608 16.7329 0.924034 17.1744 0.858643 17.6077Z" fill="#4DCDFF"/>
<path d="M1.50415 17.7059C1.71672 17.7388 1.92938 17.7713 2.14196 17.804C2.20739 17.387 2.28088 16.9781 2.37081 16.5693C2.15823 16.5284 1.94577 16.4793 1.7332 16.4303C1.64327 16.8555 1.56958 17.2807 1.50415 17.7059Z" fill="#4DCDFF"/>
<path d="M2.14209 17.8039C2.14209 17.8039 2.36278 17.8282 2.78792 17.8937C2.85331 17.5012 2.91882 17.1006 3.00875 16.7081C2.5836 16.6182 2.37094 16.5692 2.37094 16.5692C2.28101 16.978 2.20752 17.3869 2.14209 17.8039Z" fill="#4DCDFF"/>
<path d="M0.457764 16.1605C0.882949 16.2504 1.09557 16.2995 1.09557 16.2995C1.3245 15.2202 1.65152 14.1738 2.06031 13.1518C2.06031 13.1518 1.84782 13.07 1.45539 12.9065C1.0302 13.9611 0.694873 15.0486 0.457764 16.1605Z" fill="#48CCFF"/>
<path d="M1.45532 12.9065C1.84775 13.07 2.06024 13.1518 2.06024 13.1518C2.46907 12.1298 2.95964 11.1486 3.52379 10.2084C3.52379 10.2084 3.34392 10.0939 2.96781 9.87308C2.37913 10.8379 1.87229 11.8599 1.45532 12.9065Z" fill="#40C4FE"/>
<path d="M1.09521 16.2994C1.30779 16.3402 1.52045 16.3893 1.73302 16.4301C1.95377 15.4 2.26442 14.378 2.66506 13.3887C2.46067 13.3151 2.25618 13.2334 2.05996 13.1516C1.65117 14.1737 1.32415 15.2201 1.09521 16.2994Z" fill="#48CCFF"/>
<path d="M2.0603 13.1518C2.25652 13.2336 2.46102 13.3153 2.66542 13.3889C3.05785 12.4077 3.53204 11.4511 4.07983 10.5436C3.89997 10.4373 3.71193 10.3229 3.52385 10.2084C2.9597 11.1487 2.46913 12.1298 2.0603 13.1518Z" fill="#40C4FE"/>
<path d="M1.7334 16.4304C1.94597 16.4794 2.15844 16.5285 2.37101 16.5694C2.58362 15.5719 2.88611 14.5827 3.27036 13.6342C3.06596 13.5525 2.86166 13.4707 2.66544 13.3889C2.26479 14.3783 1.95415 15.4002 1.7334 16.4304Z" fill="#48CCFF"/>
<path d="M2.66528 13.3888C2.8615 13.4705 3.06581 13.5523 3.2702 13.634C3.64631 12.6856 4.10424 11.7617 4.63567 10.8869C4.45581 10.7724 4.26777 10.658 4.07969 10.5435C3.5319 11.451 3.05771 12.4076 2.66528 13.3888Z" fill="#40C4FE"/>
<path d="M2.37085 16.5692C2.37085 16.5692 2.58351 16.6183 3.00866 16.7082C3.21305 15.7435 3.50738 14.7951 3.87531 13.8794C3.4747 13.7159 3.2702 13.6341 3.2702 13.6341C2.88595 14.5826 2.58346 15.5718 2.37085 16.5692Z" fill="#48CCFF"/>
<path d="M3.27075 13.6342C3.27075 13.6342 3.47526 13.716 3.87587 13.8795C4.23562 12.9556 4.6853 12.0645 5.1922 11.2224C4.8243 10.9935 4.63622 10.8871 4.63622 10.8871C4.10479 11.7619 3.64686 12.6858 3.27075 13.6342Z" fill="#40C4FE"/>
<path d="M2.96802 9.87297C3.34413 10.0938 3.52399 10.2083 3.52399 10.2083L3.53202 10.2003C3.53202 10.2003 3.34398 10.0859 2.97604 9.86514C2.96803 9.86514 2.96802 9.86496 2.96802 9.87297Z" fill="#3EBFFD"/>
<path d="M3.52368 10.2085C3.71176 10.323 3.8998 10.4374 4.07966 10.5437C4.07966 10.5437 4.08768 10.5437 4.08768 10.5357C3.89965 10.4294 3.7116 10.315 3.53171 10.2005L3.52368 10.2085Z" fill="#3EBFFD"/>
<path d="M4.08008 10.5436C4.26815 10.658 4.4562 10.7725 4.63605 10.887C4.64407 10.8789 4.64408 10.8789 4.64408 10.8789C4.45604 10.7645 4.268 10.65 4.0881 10.5356C4.0881 10.5436 4.08008 10.5436 4.08008 10.5436Z" fill="#3EBFFD"/>
<path d="M4.63599 10.8868C4.63599 10.8868 4.82407 10.9933 5.19196 11.2222C5.19998 11.2222 5.19999 11.2142 5.19999 11.2142C4.82392 10.9852 4.64401 10.8788 4.64401 10.8788C4.64401 10.8788 4.644 10.8788 4.63599 10.8868Z" fill="#3EBFFD"/>
<path d="M2.97607 9.86494C3.34401 10.0857 3.53205 10.2001 3.53205 10.2001C4.21066 9.0718 5.01198 8.0089 5.90317 7.04414C5.90317 7.04414 5.73955 6.88887 5.42883 6.60269C4.50497 7.6002 3.67922 8.69575 2.97607 9.86494Z" fill="#3EBFFD"/>
<path d="M5.42896 6.60271C5.73968 6.88889 5.9033 7.04416 5.9033 7.04416C6.80265 6.07119 7.79181 5.18822 8.86289 4.4115C8.86289 4.4115 8.73206 4.23979 8.47859 3.88821C7.37483 4.68129 6.35286 5.59706 5.42896 6.60271Z" fill="#38B6FC"/>
<path d="M3.53198 10.2003C3.71188 10.3148 3.89992 10.4292 4.08796 10.5355C4.75021 9.44803 5.51882 8.41782 6.38547 7.4776C6.23011 7.3386 6.05846 7.18333 5.9031 7.04437C5.01192 8.00913 4.2106 9.07202 3.53198 10.2003Z" fill="#3EBFFD"/>
<path d="M5.90332 7.04413C6.05868 7.18309 6.23033 7.33836 6.38569 7.47736C7.25234 6.54528 8.20899 5.68682 9.23918 4.94278C9.11653 4.76292 8.98556 4.59133 8.86291 4.41147C7.79183 5.18819 6.80268 6.07116 5.90332 7.04413Z" fill="#38B6FC"/>
<path d="M4.08813 10.5353C4.26803 10.6498 4.45607 10.7643 4.64411 10.8787C5.28187 9.82399 6.02582 8.82667 6.85979 7.91913C6.70443 7.78012 6.54101 7.62462 6.38565 7.47748C5.519 8.4177 4.75039 9.44791 4.08813 10.5353Z" fill="#3EBFFD"/>
<path d="M6.38574 7.47758C6.5411 7.62472 6.70453 7.78022 6.85989 7.91923C7.702 7.01168 8.62585 6.19396 9.62332 5.46628C9.50068 5.2946 9.37005 5.11471 9.23923 4.94299C8.20904 5.68704 7.25239 6.5455 6.38574 7.47758Z" fill="#38B6FC"/>
<path d="M4.64404 10.8787C4.64404 10.8787 4.82395 10.9851 5.20002 11.214C5.81324 10.192 6.5327 9.23538 7.34209 8.36055C7.03141 8.07437 6.85972 7.9191 6.85972 7.9191C6.02575 8.82664 5.2818 9.82397 4.64404 10.8787Z" fill="#3EBFFD"/>
<path d="M6.85962 7.91923C6.85962 7.91923 7.03131 8.0745 7.34199 8.36068C8.14324 7.48585 9.04255 6.69275 10.0073 5.99778C9.75388 5.64621 9.62305 5.46628 9.62305 5.46628C8.62558 6.19396 7.70173 7.01168 6.85962 7.91923Z" fill="#38B6FC"/>
<path d="M8.47852 3.8882C8.73198 4.23977 8.86279 4.41148 8.86279 4.41148C8.86279 4.41148 8.8628 4.41148 8.87082 4.41148C8.87082 4.41148 8.74001 4.23155 8.48654 3.87997C8.48654 3.87997 8.47852 3.87998 8.47852 3.888V3.8882Z" fill="#32AEFB"/>
<path d="M8.86304 4.41147C8.98568 4.59133 9.11666 4.76292 9.2393 4.94278C9.24732 4.93476 9.24733 4.93475 9.24733 4.93475C9.12468 4.76307 8.99371 4.58334 8.87106 4.41166C8.86304 4.41166 8.86304 4.41166 8.86304 4.41166V4.41147Z" fill="#32AEFB"/>
<path d="M9.23901 4.94281C9.36984 5.11453 9.50046 5.29442 9.62311 5.46609H9.63113C9.50031 5.28624 9.37782 5.11468 9.24704 4.93478C9.24704 4.93478 9.24703 4.93479 9.23901 4.94281Z" fill="#32AEFB"/>
<path d="M9.6228 5.46628C9.6228 5.46628 9.75362 5.64621 10.0071 5.99778V5.98976C9.75362 5.63818 9.63102 5.46647 9.63102 5.46647H9.623L9.6228 5.46628Z" fill="#32AEFB"/>
<path d="M8.48657 3.87999C8.74004 4.23156 8.87086 4.41149 8.87086 4.41149C9.90105 3.65927 11.0048 3.01326 12.1658 2.48183C12.1658 2.48183 12.0677 2.27745 11.8878 1.89316C10.6941 2.44095 9.55765 3.11145 8.48657 3.87999Z" fill="#32AEFB"/>
<path d="M11.8882 1.89336C12.0681 2.27765 12.1662 2.48203 12.1662 2.48203C13.319 1.9506 14.529 1.52556 15.7636 1.22306C15.7636 1.22306 15.7146 1.01044 15.6083 0.593475C14.3329 0.904155 13.0901 1.33739 11.8882 1.89336Z" fill="#2CA6F9"/>
<path d="M8.87109 4.4116C8.99374 4.58328 9.12452 4.76321 9.24716 4.93488C10.2446 4.21542 11.3157 3.59386 12.4358 3.0706C12.3459 2.88253 12.256 2.67815 12.166 2.48193C11.005 3.01337 9.90128 3.65938 8.87109 4.4116Z" fill="#32AEFB"/>
<path d="M12.1663 2.48199C12.2562 2.67821 12.3461 2.88259 12.436 3.07066C13.5561 2.55555 14.7254 2.14677 15.9191 1.85241C15.87 1.64802 15.8209 1.4356 15.7637 1.22302C14.5291 1.52552 13.3191 1.95056 12.1663 2.48199Z" fill="#2CA6F9"/>
<path d="M9.24707 4.93496C9.37785 5.11486 9.50054 5.28641 9.63136 5.46627C10.5962 4.76316 11.6265 4.16633 12.7057 3.66757C12.6157 3.47136 12.5257 3.26689 12.4357 3.07068C11.3156 3.59393 10.2445 4.21549 9.24707 4.93496Z" fill="#32AEFB"/>
<path d="M12.4358 3.07058C12.5258 3.26679 12.6158 3.47125 12.7058 3.66747C13.7932 3.16875 14.9213 2.7681 16.0741 2.49013C16.0251 2.27756 15.9761 2.06494 15.9189 1.85233C14.7251 2.14669 13.5559 2.55546 12.4358 3.07058Z" fill="#2CA6F9"/>
<path d="M9.63135 5.46606C9.63135 5.46606 9.75395 5.63777 10.0074 5.98934C10.9395 5.31891 11.9371 4.73843 12.9836 4.25603C12.8038 3.87178 12.7057 3.66736 12.7057 3.66736C11.6264 4.16611 10.5961 4.76295 9.63135 5.46606Z" fill="#32AEFB"/>
<path d="M12.7056 3.66745C12.7056 3.66745 12.8037 3.87187 12.9836 4.25612C14.0219 3.77372 15.1174 3.3977 16.2294 3.1197C16.1313 2.70273 16.0739 2.49011 16.0739 2.49011C14.9211 2.76808 13.793 3.16873 12.7056 3.66745Z" fill="#2CA6F9"/>
<path d="M15.6082 0.593475C15.7144 1.01044 15.7634 1.22306 15.7634 1.22306C15.7714 1.22306 15.7714 1.22306 15.7714 1.22306C15.7714 1.22306 15.7225 1.01044 15.6162 0.593475C15.6162 0.593475 15.6162 0.593475 15.6082 0.593475Z" fill="#279EF8"/>
<path d="M15.7629 1.22302C15.8202 1.4356 15.8693 1.64802 15.9184 1.85241C15.9264 1.85241 15.9264 1.85241 15.9264 1.85241C15.8773 1.63984 15.8282 1.4356 15.771 1.22302C15.771 1.22302 15.771 1.22302 15.7629 1.22302Z" fill="#279EF8"/>
<path d="M15.9187 1.85233C15.9759 2.06494 16.0249 2.27756 16.0739 2.49013C16.082 2.49013 16.082 2.49013 16.082 2.49013C16.0329 2.27756 15.9758 2.06494 15.9267 1.85233C15.9267 1.85233 15.9267 1.85233 15.9187 1.85233Z" fill="#279EF8"/>
<path d="M16.0737 2.49011C16.0737 2.49011 16.1311 2.70273 16.2292 3.1197H16.2372C16.1309 2.69455 16.0818 2.49011 16.0818 2.49011C16.0818 2.49011 16.0817 2.49011 16.0737 2.49011Z" fill="#279EF8"/>
<path d="M15.6162 0.593356C15.7225 1.01032 15.7715 1.22294 15.7715 1.22294C16.7035 0.994009 17.6438 0.838679 18.5922 0.740572C18.5922 0.740572 18.5678 0.519689 18.5269 0.0945435C17.5457 0.192651 16.5728 0.356246 15.6162 0.593356Z" fill="#279EF8"/>
<path d="M18.5269 0.0944533C18.5677 0.519599 18.5922 0.740482 18.5922 0.740482C19.5407 0.650553 20.4973 0.625826 21.4457 0.6749C21.4457 0.6749 21.4622 0.454169 21.4786 0.0208452C20.4975 -0.0200496 19.5082 -0.00357389 18.5271 0.0944533H18.5269Z" fill="#2399F7"/>
<path d="M15.7715 1.22297C15.8287 1.43554 15.8778 1.63978 15.9269 1.85236C16.8263 1.6316 17.7338 1.47644 18.6577 1.39466C18.6332 1.1739 18.6086 0.953173 18.5923 0.740601C17.6438 0.838708 16.7036 0.994038 15.7715 1.22297Z" fill="#279EF8"/>
<path d="M18.592 0.740509C18.6085 0.953082 18.6329 1.17381 18.6574 1.39456C19.5731 1.30464 20.497 1.28006 21.4209 1.32096C21.4289 1.10838 21.4373 0.8875 21.4453 0.674927C20.4969 0.625854 19.5405 0.650661 18.592 0.740509Z" fill="#2399F7"/>
<path d="M15.927 1.85223C15.976 2.06485 16.0332 2.27747 16.0822 2.49004C16.9489 2.27747 17.8319 2.12211 18.7149 2.04036C18.6985 1.82779 18.6741 1.60714 18.6577 1.39453C17.7339 1.47632 16.8264 1.63148 15.927 1.85223Z" fill="#279EF8"/>
<path d="M18.658 1.39451C18.6744 1.60713 18.6988 1.82777 18.7151 2.04035C19.6063 1.95042 20.4975 1.93411 21.3887 1.97496C21.3967 1.75421 21.4052 1.54166 21.4216 1.32091C20.4977 1.28001 19.5739 1.3045 18.6582 1.39451H18.658Z" fill="#2399F7"/>
<path d="M16.0823 2.49023C16.0823 2.49023 16.1314 2.69467 16.2377 3.11982C17.0716 2.91542 17.9219 2.76814 18.7803 2.68639C18.7395 2.26125 18.7149 2.04056 18.7149 2.04056C17.8319 2.12231 16.9489 2.27766 16.0823 2.49023Z" fill="#279EF8"/>
<path d="M18.7148 2.04053C18.7148 2.04053 18.7393 2.26121 18.7802 2.68636C19.6387 2.60461 20.4973 2.58008 21.3557 2.62097C21.3802 2.18761 21.3886 1.97514 21.3886 1.97514C20.4974 1.93428 19.6062 1.95064 18.715 2.04053H18.7148Z" fill="#2399F7"/>
<path d="M21.4787 0.0208435C21.4623 0.454168 21.4458 0.674898 21.4458 0.674898C22.0917 0.699355 22.7294 0.764879 23.359 0.854807C23.359 0.854807 23.3919 0.642342 23.4571 0.217197C22.803 0.11909 22.1408 0.0535192 21.4785 0.0208435H21.4787Z" fill="#1E92F6"/>
<path d="M21.4456 0.675079C21.4376 0.887652 21.4292 1.10854 21.4211 1.32111C22.0343 1.35398 22.6558 1.41105 23.269 1.50102C23.3019 1.2884 23.3261 1.07574 23.3588 0.854988C22.7293 0.76506 22.0915 0.699616 21.4456 0.675079Z" fill="#1E92F6"/>
<path d="M21.4209 1.32114C21.4044 1.54189 21.3966 1.75444 21.3882 1.97519C21.985 1.99965 22.5818 2.05695 23.1704 2.14688C23.2033 1.93431 23.2358 1.71362 23.2685 1.50105C22.6553 1.41108 22.0341 1.35385 21.4209 1.32114Z" fill="#1E92F6"/>
<path d="M21.3881 1.9751C21.3881 1.9751 21.3801 2.18757 21.3552 2.62093C21.9357 2.65381 22.5082 2.70269 23.0805 2.79262C23.1459 2.35929 23.1704 2.14678 23.1704 2.14678C22.5817 2.05686 21.985 1.99963 21.3881 1.9751Z" fill="#1E92F6"/>
<path d="M23.457 0.217285C23.3915 0.64243 23.3589 0.854896 23.3589 0.854896C23.3669 0.854896 23.3669 0.854896 23.3669 0.854896C23.3669 0.854896 23.3998 0.64243 23.465 0.217285H23.457Z" fill="#1B8EF5"/>
<path d="M23.3591 0.854828C23.3262 1.07558 23.3017 1.28824 23.269 1.50086C23.269 1.50086 23.2691 1.50086 23.2771 1.50086C23.3099 1.28824 23.3426 1.07558 23.3671 0.854828C23.3671 0.854828 23.3671 0.854828 23.3591 0.854828Z" fill="#1B8EF5"/>
<path d="M23.269 1.50085C23.2361 1.71343 23.2036 1.93411 23.1709 2.14669C23.1789 2.14669 23.1789 2.14669 23.1789 2.14669C23.2118 1.93411 23.2443 1.71343 23.277 1.50085C23.269 1.50085 23.269 1.50085 23.269 1.50085Z" fill="#1B8EF5"/>
<path d="M23.1709 2.14688C23.1709 2.14688 23.1465 2.35939 23.0811 2.79271C23.0811 2.79271 23.0811 2.79271 23.0891 2.79271C23.1463 2.35939 23.1789 2.14688 23.1789 2.14688C23.1789 2.14688 23.1789 2.14688 23.1709 2.14688Z" fill="#1B8EF5"/>
<path d="M23.4655 0.217285C23.4 0.64243 23.3672 0.854896 23.3672 0.854896C24.6753 1.05115 25.9673 1.37014 27.2101 1.81983C27.2101 1.81983 27.2835 1.60714 27.4307 1.20649C26.1471 0.748631 24.8145 0.4135 23.4655 0.217285Z" fill="#1B8EF5"/>
<path d="M27.4308 1.2066C27.2837 1.60725 27.2102 1.81994 27.2102 1.81994C28.4448 2.26962 29.6466 2.84179 30.7749 3.52859C30.7749 3.52859 30.8893 3.3405 31.1101 2.97261C29.9491 2.26128 28.7144 1.67264 27.4308 1.2066Z" fill="#1585F4"/>
<path d="M23.367 0.854828C23.3425 1.07558 23.3098 1.28824 23.2771 1.50086C24.5362 1.68889 25.7871 1.99957 26.989 2.4329C27.0544 2.23668 27.1362 2.02415 27.2098 1.81976C25.9671 1.37008 24.6751 1.05108 23.367 0.854828Z" fill="#1B8EF5"/>
<path d="M27.2101 1.81976C27.1365 2.02416 27.0546 2.23669 26.9893 2.4329C28.1829 2.86623 29.3441 3.42213 30.4396 4.08439C30.5459 3.89631 30.6603 3.70827 30.7748 3.52841C29.6465 2.84162 28.4447 2.26945 27.2101 1.81976Z" fill="#1585F4"/>
<path d="M23.2773 1.50085C23.2444 1.71343 23.2119 1.93411 23.1792 2.14669C24.4056 2.32654 25.6074 2.62907 26.7684 3.04604C26.8338 2.84982 26.9156 2.63729 26.9892 2.4329C25.7873 1.99957 24.5364 1.68889 23.2773 1.50085Z" fill="#1B8EF5"/>
<path d="M26.9894 2.43286C26.9158 2.63725 26.8339 2.84979 26.7686 3.046C27.9213 3.46297 29.0415 4.00256 30.0962 4.64032C30.2107 4.45224 30.3253 4.27238 30.4398 4.08434C29.3442 3.42209 28.1831 2.86619 26.9894 2.43286Z" fill="#1585F4"/>
<path d="M23.1792 2.14688C23.1792 2.14688 23.1462 2.35939 23.0891 2.79271C24.2665 2.96443 25.4275 3.25058 26.5395 3.65937C26.6866 3.25876 26.7683 3.04623 26.7683 3.04623C25.6073 2.62926 24.4056 2.32674 23.1792 2.14688Z" fill="#1B8EF5"/>
<path d="M26.7682 3.04602C26.7682 3.04602 26.6864 3.25855 26.5393 3.65916C27.6594 4.05981 28.7386 4.57492 29.7606 5.19632C29.9896 4.82838 30.0958 4.64034 30.0958 4.64034C29.0411 4.00258 27.9209 3.46299 26.7682 3.04602Z" fill="#1585F4"/>
<path d="M31.1103 2.97263C30.8895 3.34052 30.7751 3.5286 30.7751 3.5286C30.7751 3.5286 30.7752 3.5286 30.7832 3.5286C30.7832 3.5286 30.8976 3.3487 31.1183 2.97263H31.1103Z" fill="#0F7DF3"/>
<path d="M30.7748 3.52847C30.6604 3.70833 30.546 3.89637 30.4397 4.08445C30.5542 3.90455 30.6686 3.71651 30.7831 3.52847C30.7751 3.52847 30.775 3.52847 30.775 3.52847H30.7748Z" fill="#0F7DF3"/>
<path d="M30.4398 4.08435C30.3253 4.27239 30.2107 4.45225 30.0962 4.64033C30.1042 4.64033 30.1042 4.64033 30.1042 4.64033C30.2187 4.46043 30.3333 4.27239 30.4396 4.08435H30.4398Z" fill="#0F7DF3"/>
<path d="M30.0959 4.64053C30.0959 4.64053 29.9897 4.82858 29.7607 5.19651H29.7688C29.9895 4.82858 30.1039 4.64053 30.1039 4.64053C30.1039 4.64053 30.1039 4.64053 30.0959 4.64053Z" fill="#0F7DF3"/>
<path d="M31.1181 2.97263C30.8974 3.3487 30.783 3.5286 30.783 3.5286C31.9113 4.21539 32.9741 5.00858 33.9389 5.90794C33.9389 5.90794 34.0942 5.73626 34.3804 5.42558C33.3747 4.50167 32.2873 3.68391 31.1181 2.97263Z" fill="#0F7DF3"/>
<path d="M34.3802 5.42548C34.094 5.73616 33.9387 5.90784 33.9387 5.90784C34.9117 6.79903 35.7947 7.78837 36.5714 8.85941C36.5714 8.85941 36.7431 8.73662 37.0947 8.48315C36.3016 7.37121 35.3858 6.34938 34.3802 5.42548Z" fill="#0974F2"/>
<path d="M30.7831 3.52847C30.6686 3.71651 30.5542 3.90455 30.4397 4.08445C31.5353 4.7467 32.5653 5.52349 33.4974 6.38196C33.6446 6.22664 33.8 6.06313 33.939 5.90781C32.9743 5.00845 31.9114 4.21526 30.7831 3.52847Z" fill="#0F7DF3"/>
<path d="M33.9387 5.90796C33.7997 6.06328 33.6443 6.22678 33.4971 6.3821C34.4373 7.24879 35.2958 8.20545 36.0399 9.24381C36.2197 9.12117 36.3915 8.99035 36.5714 8.85953C35.7947 7.78848 34.9117 6.79914 33.9387 5.90796Z" fill="#0974F2"/>
<path d="M30.4396 4.08435C30.3333 4.27239 30.2187 4.46043 30.1042 4.64033C31.159 5.28622 32.1565 6.03026 33.064 6.86423C33.203 6.70887 33.3583 6.5454 33.4973 6.38186C32.5652 5.52339 31.5352 4.74661 30.4396 4.08435Z" fill="#0F7DF3"/>
<path d="M33.497 6.38187C33.3579 6.54541 33.2027 6.70887 33.0637 6.86423C33.9713 7.69821 34.7888 8.62221 35.5165 9.62787C35.6882 9.49704 35.868 9.3744 36.0398 9.24358C35.2957 8.20521 34.4372 7.24855 33.497 6.38187Z" fill="#0974F2"/>
<path d="M30.1042 4.64053C30.1042 4.64053 29.9898 4.82858 29.769 5.19651C30.7911 5.81787 31.7477 6.53737 32.6225 7.34681C32.9087 7.02795 33.064 6.86444 33.064 6.86444C32.1564 6.03046 31.1589 5.28643 30.1042 4.64053Z" fill="#0F7DF3"/>
<path d="M33.064 6.86435C33.064 6.86435 32.9087 7.02786 32.6226 7.34672C33.4974 8.14797 34.2905 9.03929 34.9855 10.004C35.337 9.75062 35.5168 9.62798 35.5168 9.62798C34.7891 8.62233 33.9716 7.69832 33.064 6.86435Z" fill="#0974F2"/>
<path d="M37.0946 8.48322C36.743 8.73668 36.5713 8.85948 36.5713 8.85948C36.5713 8.8675 36.5713 8.8673 36.5713 8.8673C36.5713 8.8673 36.751 8.74466 37.1026 8.49123C37.1026 8.48321 37.0948 8.48322 37.0948 8.48322H37.0946Z" fill="#036BF1"/>
<path d="M36.5715 8.85941C36.3916 8.99023 36.2199 9.12104 36.04 9.24368L36.0481 9.25152C36.2197 9.12069 36.3996 8.99806 36.5713 8.86724C36.5713 8.86724 36.5713 8.86742 36.5713 8.85941H36.5715Z" fill="#036BF1"/>
<path d="M36.0401 9.24377C35.8684 9.3746 35.6886 9.49725 35.5168 9.62807C35.6967 9.50543 35.8685 9.37445 36.0484 9.2518L36.0403 9.24377H36.0401Z" fill="#036BF1"/>
<path d="M35.5167 9.62809C35.5167 9.62809 35.3369 9.75073 34.9854 10.0042C34.9854 10.0122 34.9854 10.0122 34.9934 10.0122C35.345 9.75872 35.5164 9.6279 35.5164 9.6279L35.5167 9.62809Z" fill="#036BF1"/>
<path d="M37.1026 8.49146C36.751 8.74488 36.5713 8.86752 36.5713 8.86752C36.5713 8.86752 36.9065 9.38267 37.5769 10.4047C37.5769 10.4047 37.765 10.2903 38.1329 10.0695C37.4461 9.0148 37.1026 8.49146 37.1026 8.49146Z" fill="#036BF1"/>
<path d="M36.5716 8.86734C36.3999 8.99816 36.22 9.12081 36.0483 9.25163C36.0483 9.25163 36.3672 9.74233 37.0131 10.7316C37.2011 10.6253 37.3892 10.5108 37.5773 10.4045C36.9068 9.38249 36.5716 8.86734 36.5716 8.86734Z" fill="#036BF1"/>
<path d="M36.0484 9.25171C35.8685 9.37435 35.6967 9.50533 35.5168 9.62797C35.5168 9.62797 35.8275 10.1102 36.4571 11.0669C36.6451 10.9524 36.8251 10.8462 37.0131 10.7317C36.3672 9.74241 36.0484 9.25171 36.0484 9.25171Z" fill="#036BF1"/>
<path d="M35.5167 9.6279C35.5167 9.6279 35.345 9.75853 34.9934 10.012C34.9934 10.012 35.2877 10.47 35.8928 11.3939C36.2689 11.1732 36.457 11.0668 36.457 11.0668C35.8274 10.1102 35.5167 9.6279 35.5167 9.6279Z" fill="#036BF1"/>
<path d="M32.8625 11.3104L39.132 15.931L40 8.19153L32.8625 11.3104Z" fill="#0067F0"/>
<path d="M17.0691 18.766C17.3816 18.3235 17.538 17.8965 17.538 17.4831C17.538 17.0706 17.4023 16.7254 17.131 16.4483C16.8595 16.1713 16.5118 16.0325 16.0872 16.0325C15.3087 16.0325 14.5713 16.5871 13.8753 17.6956L11.6638 16.3862C12.2416 15.49 12.8758 14.8117 13.5657 14.3514C14.2557 13.8916 15.1343 13.6614 16.202 13.6614C17.2696 13.6614 18.2073 14.0006 19.0154 14.6789C19.8232 15.3574 20.2274 16.28 20.2274 17.4478C20.2274 18.0849 20.0652 18.6951 19.7408 19.2793C19.4161 19.863 18.8177 20.6091 17.9449 21.5173L15.7155 23.8355H20.5989V26.3123H11.876V24.2601L15.5032 20.5442C16.2344 19.8013 16.7564 19.2083 17.0691 18.766Z" fill="#1A8CF4"/>
<path d="M26.2782 20.9688V18.8102H28.9324V20.9688H30.3301V23.3575H28.9324V26.3123H26.2782V23.3575H21.3064V21.2518L25.7121 13.9446H28.72L24.5267 20.9688H26.2782Z" fill="#1A8CF4"/>
<path d="M20.8366 4.37796C20.5171 4.37796 20.2581 4.63696 20.2581 4.9565V7.69484C20.2581 8.01438 20.5171 8.27339 20.8366 8.27339C21.1561 8.27339 21.4151 8.01438 21.4151 7.69484V4.9565C21.4151 4.63696 21.1561 4.37796 20.8366 4.37796Z" fill="url(#paint0_linear_53_521)"/>
<path d="M20.8366 31.7602C20.5171 31.7602 20.2581 32.0191 20.2581 32.3388V35.0771C20.2581 35.3966 20.5171 35.6552 20.8366 35.6552C21.1561 35.6552 21.4151 35.3966 21.4151 35.0771V32.3388C21.4151 32.0191 21.1561 31.7602 20.8366 31.7602Z" fill="url(#paint1_linear_53_521)"/>
<path d="M35.897 19.4381H33.1586C32.8391 19.4381 32.5801 19.697 32.5801 20.0166C32.5801 20.3361 32.8391 20.5951 33.1586 20.5951H35.897C36.2165 20.5951 36.4755 20.3361 36.4755 20.0166C36.4755 19.697 36.2165 19.4381 35.897 19.4381Z" fill="url(#paint2_linear_53_521)"/>
<path d="M8.51468 19.4381H5.77613C5.45679 19.4381 5.19775 19.697 5.19775 20.0166C5.19775 20.3361 5.45679 20.5951 5.77613 20.5951H8.51468C8.83418 20.5951 9.09306 20.3361 9.09306 20.0166C9.09306 19.697 8.83418 19.4381 8.51468 19.4381Z" fill="url(#paint3_linear_53_521)"/>
<path d="M31.5172 9.11811L29.5568 11.0787C29.5003 11.1348 29.5003 11.2266 29.5568 11.2827C29.585 11.3112 29.622 11.3252 29.6591 11.3252C29.696 11.3252 29.733 11.3112 29.7612 11.2827L31.7217 9.32258C31.7782 9.26605 31.7782 9.17464 31.7217 9.11811C31.6652 9.06118 31.5738 9.06118 31.5172 9.11811Z" fill="url(#paint4_linear_53_521)"/>
<path d="M11.9122 28.7232L9.95185 30.6836C9.89528 30.7399 9.89528 30.8317 9.95185 30.8877C9.98004 30.9162 10.017 30.9303 10.0539 30.9303C10.0909 30.9303 10.128 30.9162 10.1562 30.8877L12.1165 28.9276C12.1732 28.871 12.1732 28.7797 12.1165 28.7232C12.0601 28.6662 11.9685 28.6662 11.9122 28.7232Z" fill="url(#paint5_linear_53_521)"/>
<path d="M29.7612 28.7232C29.7048 28.6662 29.6132 28.6662 29.5568 28.7232C29.5003 28.7797 29.5003 28.871 29.5568 28.9276L31.5172 30.8877C31.5453 30.9162 31.5826 30.9303 31.6195 30.9303C31.6563 30.9303 31.6932 30.9162 31.7217 30.8877C31.7782 30.8317 31.7782 30.7399 31.7217 30.6836L29.7612 28.7232Z" fill="url(#paint6_linear_53_521)"/>
<path d="M10.1562 9.11811C10.0998 9.06118 10.0082 9.06118 9.95185 9.11811C9.89528 9.17464 9.89528 9.26605 9.95185 9.32258L11.9122 11.2827C11.9403 11.3112 11.9775 11.3252 12.0144 11.3252C12.0514 11.3252 12.0884 11.3112 12.1165 11.2827C12.1732 11.2266 12.1732 11.1348 12.1165 11.0787L10.1562 9.11811Z" fill="url(#paint7_linear_53_521)"/>
</g>
<defs>
<linearGradient id="paint0_linear_53_521" x1="-8.24952" y1="27.9742" x2="16.6397" y2="9.44946" gradientUnits="userSpaceOnUse">
<stop stop-color="white"/>
<stop offset="0.0377913" stop-color="white"/>
<stop offset="0.539801" stop-color="#48CCFF"/>
<stop offset="0.548337" stop-color="#48CCFF"/>
<stop offset="1" stop-color="#0067F0"/>
</linearGradient>
<linearGradient id="paint1_linear_53_521" x1="4.86551" y1="45.5951" x2="29.7547" y2="27.0703" gradientUnits="userSpaceOnUse">
<stop stop-color="white"/>
<stop offset="0.0377913" stop-color="white"/>
<stop offset="0.539801" stop-color="#48CCFF"/>
<stop offset="0.548337" stop-color="#48CCFF"/>
<stop offset="1" stop-color="#0067F0"/>
</linearGradient>
<linearGradient id="paint2_linear_53_521" x1="3.18871" y1="43.3422" x2="28.0779" y2="24.8175" gradientUnits="userSpaceOnUse">
<stop stop-color="white"/>
<stop offset="0.0377913" stop-color="white"/>
<stop offset="0.539801" stop-color="#48CCFF"/>
<stop offset="0.548337" stop-color="#48CCFF"/>
<stop offset="1" stop-color="#0067F0"/>
</linearGradient>
<linearGradient id="paint3_linear_53_521" x1="-6.57279" y1="30.227" x2="18.3164" y2="11.7022" gradientUnits="userSpaceOnUse">
<stop stop-color="white"/>
<stop offset="0.0377913" stop-color="white"/>
<stop offset="0.539801" stop-color="#48CCFF"/>
<stop offset="0.548337" stop-color="#48CCFF"/>
<stop offset="1" stop-color="#0067F0"/>
</linearGradient>
<linearGradient id="paint4_linear_53_521" x1="-2.89912" y1="35.1629" x2="21.9901" y2="16.6381" gradientUnits="userSpaceOnUse">
<stop stop-color="white"/>
<stop offset="0.0377913" stop-color="white"/>
<stop offset="0.539801" stop-color="#48CCFF"/>
<stop offset="0.548337" stop-color="#48CCFF"/>
<stop offset="1" stop-color="#0067F0"/>
</linearGradient>
<linearGradient id="paint5_linear_53_521" x1="-0.49797" y1="38.3887" x2="24.3912" y2="19.8639" gradientUnits="userSpaceOnUse">
<stop stop-color="white"/>
<stop offset="0.0377913" stop-color="white"/>
<stop offset="0.539801" stop-color="#48CCFF"/>
<stop offset="0.548337" stop-color="#48CCFF"/>
<stop offset="1" stop-color="#0067F0"/>
</linearGradient>
<linearGradient id="paint6_linear_53_521" x1="6.49096" y1="47.7789" x2="31.3801" y2="29.2541" gradientUnits="userSpaceOnUse">
<stop stop-color="white"/>
<stop offset="0.0377913" stop-color="white"/>
<stop offset="0.539801" stop-color="#48CCFF"/>
<stop offset="0.548337" stop-color="#48CCFF"/>
<stop offset="1" stop-color="#0067F0"/>
</linearGradient>
<linearGradient id="paint7_linear_53_521" x1="-9.88799" y1="25.7727" x2="15.0012" y2="7.2479" gradientUnits="userSpaceOnUse">
<stop stop-color="white"/>
<stop offset="0.0377913" stop-color="white"/>
<stop offset="0.539801" stop-color="#48CCFF"/>
<stop offset="0.548337" stop-color="#48CCFF"/>
<stop offset="1" stop-color="#0067F0"/>
</linearGradient>
<clipPath id="clip0_53_521">
<rect width="40" height="41" fill="white"/>
</clipPath>
</defs>
</svg>
