<svg width="48" height="48" viewBox="0 0 48 48" fill="none" xmlns="http://www.w3.org/2000/svg">
<g clip-path="url(#clip0_23_2472)">
<path d="M47.9988 39.1995C47.9919 34.9604 44.967 31.3273 40.7993 30.5529V28.8001C40.7993 27.0329 39.3667 25.6003 37.5995 25.6003H33.5998V20.8008C33.5955 19.7875 32.9553 18.8859 31.9999 18.5481V16.801C31.9999 16.3592 31.6417 16.001 31.2 16.001C30.7582 16.001 30.3999 16.3592 30.3999 16.801V18.5481C29.4446 18.8859 28.8043 19.7875 28.8002 20.8008V25.6003H27.3203L26.4644 16.6337C27.6975 16.1477 28.3031 14.7542 27.8171 13.5211C27.4579 12.6094 26.5804 12.0078 25.6004 12.0012H7.20154C6.31794 12.0012 5.60172 12.7176 5.60172 13.6011V15.2009C5.60172 16.0844 6.31809 16.8007 7.20154 16.8007V23.2003H4.00176C3.11816 23.2003 2.40194 23.9166 2.40194 24.8C2.4024 25.016 2.31347 25.2224 2.15642 25.3704C2.01047 25.5192 1.8104 25.602 1.60212 25.6C0.718519 25.6 0.00230404 26.3164 0.00230404 27.1998V29.5997C0.00732102 30.6581 0.705139 31.5882 1.71978 31.8891C-1.43666 36.6635 -0.124945 43.0928 4.64941 46.2492C4.72618 46.3 4.80372 46.3499 4.88186 46.3985H0.801982C0.360183 46.3985 0.00199999 46.7567 0.00199999 47.1985C0.00199999 47.6403 0.360183 47.9985 0.801982 47.9985H47.1987C47.6405 47.9985 47.9987 47.6403 47.9987 47.1985C47.9987 46.7567 47.6405 46.3985 47.1987 46.3985H44.2429C46.5946 44.7557 47.9965 42.0682 47.9988 39.1995ZM30.3999 20.8008C30.3999 20.359 30.7582 20.0007 31.2 20.0007C31.6417 20.0007 31.9999 20.359 31.9999 20.8008V25.6003H30.3999V20.8008ZM16.001 16.801V24.4293C14.7332 23.8526 13.3842 23.4748 12.0013 23.3094V16.801H16.001ZM17.6008 16.801H24.8732L26.3204 31.9999L23.1246 31.9878C22.0643 29.2117 20.1242 26.859 17.601 25.2891V16.801H17.6008ZM7.20154 13.6012H25.6002C26.042 13.6012 26.4002 13.9594 26.4002 14.4012C26.4002 14.843 26.042 15.2012 25.6002 15.2012H7.20154V13.6012ZM8.80152 16.801H10.4013V23.2006H8.80152V16.801ZM2.40194 30.4C1.96015 30.4 1.60196 30.0419 1.60196 29.6001V27.2003C2.23517 27.2056 2.84344 26.9536 3.28752 26.5019C3.74772 26.0558 4.00571 25.4413 4.00191 24.8004H10.4015C15.3879 24.8186 19.8495 27.9019 21.6295 32.5598C21.8622 33.1825 22.4558 33.5965 23.1206 33.5997H26.3204C27.207 33.6001 27.9261 32.8816 27.9266 31.9949C27.9266 31.9472 27.9244 31.8994 27.9202 31.8518L27.4722 27.2002H37.5995C38.4831 27.2002 39.1995 27.9165 39.1995 28.7999V30.3998H31.2C30.7582 30.3998 30.3999 30.758 30.3999 31.1998C30.3999 31.6415 30.7582 31.9997 31.2 31.9997H34.1596C31.8066 33.6421 30.403 36.3295 30.3999 39.1993C30.3999 39.4696 30.4168 39.7352 30.4407 39.9993H20.5102C21.8469 34.4227 18.4098 28.8183 12.8332 27.4819C9.2424 26.6212 5.46459 27.7323 2.91155 30.4H2.40194ZM1.60196 37.5995C1.60196 32.7397 5.54152 28.8001 10.4013 28.8001C15.2611 28.8001 19.2007 32.7397 19.2007 37.5995C19.2007 42.4592 15.2611 46.3988 10.4013 46.3988C5.54395 46.3932 1.60774 42.457 1.60196 37.5995ZM15.9209 46.3989C17.7423 45.2569 19.1669 43.5808 20.0006 41.5994H30.7407C31.2965 43.5438 32.5036 45.2383 34.1596 46.3989H15.9209ZM39.1993 46.3989C35.2231 46.3989 31.9998 43.1756 31.9998 39.1995C31.9998 35.2233 35.2231 31.9999 39.1993 31.9999C43.1755 31.9999 46.3988 35.2233 46.3988 39.1995C46.3944 43.1738 43.1737 46.3946 39.1993 46.3989Z" fill="#FFDF75"/>
<path d="M39.1994 33.5999C36.1068 33.5999 33.5999 36.1068 33.5999 39.1994C33.5999 42.292 36.1068 44.799 39.1994 44.799C42.292 44.799 44.799 42.292 44.799 39.1994C44.795 36.1085 42.2904 33.6038 39.1994 33.5999ZM39.1994 43.1992C36.9904 43.1992 35.1997 41.4085 35.1997 39.1994C35.1997 36.9904 36.9904 35.1997 39.1994 35.1997C41.4085 35.1997 43.1992 36.9904 43.1992 39.1994C43.1966 41.4074 41.4074 43.1965 39.1994 43.1992Z" fill="#FFDF75"/>
<path d="M39.1993 36.7997C37.874 36.7997 36.7996 37.8741 36.7996 39.1995C36.7996 40.5248 37.874 41.5993 39.1993 41.5993C40.5248 41.5993 41.5991 40.5248 41.5991 39.1995C41.5993 37.8741 40.5248 36.7997 39.1993 36.7997ZM39.1993 39.9994C38.7575 39.9994 38.3994 39.6413 38.3994 39.1995C38.3994 38.7577 38.7575 38.3995 39.1993 38.3995C39.6412 38.3995 39.9994 38.7577 39.9994 39.1995C39.9994 39.6413 39.6412 39.9994 39.1993 39.9994Z" fill="#FFDF75"/>
<path d="M10.4015 31.2001C6.86711 31.2001 4.00195 34.0652 4.00195 37.5996C4.00195 41.134 6.86711 43.9992 10.4015 43.9992C13.9359 43.9992 16.8011 41.134 16.8011 37.5996C16.7971 34.0667 13.9342 31.204 10.4015 31.2001ZM10.4015 42.3992C7.75073 42.3992 5.60192 40.2503 5.60192 37.5996C5.60192 34.949 7.75087 32.8001 10.4015 32.8001C13.0521 32.8001 15.2011 34.949 15.2011 37.5996C15.1985 40.2492 13.0512 42.3966 10.4015 42.3992Z" fill="#FFDF75"/>
<path d="M10.4015 34.3998C8.63428 34.3998 7.20166 35.8324 7.20166 37.5996C7.20166 39.3668 8.63428 40.7994 10.4015 40.7994C12.1687 40.7994 13.6013 39.3668 13.6013 37.5996C13.6013 35.8324 12.1687 34.3998 10.4015 34.3998ZM10.4015 39.1994C9.51784 39.1994 8.80164 38.483 8.80164 37.5996C8.80164 36.716 9.51805 35.9998 10.4015 35.9998C11.2851 35.9998 12.0013 36.7162 12.0013 37.5996C12.0014 38.483 11.2851 39.1994 10.4015 39.1994Z" fill="#FFDF75"/>
<path d="M20.6256 24.5004L23.8255 20.5007C24.1015 20.1556 24.0458 19.652 23.7007 19.376C23.3555 19.0999 22.852 19.1557 22.5759 19.5008L19.3761 23.5005C19.1 23.8456 19.1558 24.3491 19.5009 24.6252C19.8459 24.9013 20.3494 24.8455 20.6256 24.5004Z" fill="#FFDF75"/>
<path d="M34.1836 13.8172C34.4959 14.1298 35.0022 14.1301 35.3148 13.8178C35.315 13.8177 35.3153 13.8174 35.3155 13.8172L35.3699 13.762C35.6674 13.4598 35.6638 12.9736 35.3615 12.6761C35.3553 12.67 35.3491 12.6641 35.3427 12.6582C35.0118 12.3538 34.4997 12.3658 34.1836 12.6854C33.871 12.9977 33.8707 13.504 34.1829 13.8166C34.1832 13.8167 34.1834 13.817 34.1836 13.8172Z" fill="#FFDF75"/>
<path d="M34.73 9.42391C34.7648 9.86436 35.15 10.1932 35.5905 10.1582H35.5906C36.6574 9.98279 37.6643 10.7054 37.8397 11.7722C37.8744 11.9833 37.8743 12.1989 37.8393 12.4101C37.8043 12.8505 38.133 13.2359 38.5734 13.2709H38.5735H38.6376C39.0558 13.2722 39.4045 12.951 39.4376 12.5341C39.6883 10.5909 38.3164 8.81231 36.3731 8.56156C36.0715 8.52266 35.7661 8.52266 35.4642 8.56177C35.0238 8.59652 34.695 8.98181 34.7298 9.42226C34.7298 9.42269 34.73 9.42327 34.73 9.42391Z" fill="#FFDF75"/>
<path d="M42.5095 12.4988C42.5233 12.9306 42.8774 13.2734 43.3095 13.2731H43.3359C43.7771 13.2589 44.1235 12.8897 44.1095 12.4484C43.9931 7.77206 40.2297 4.00874 35.5532 3.89304H35.5267C35.085 3.8862 34.7213 4.23876 34.7145 4.68056C34.7076 5.12236 35.0602 5.48601 35.5019 5.49285C39.3341 5.58316 42.4192 8.6683 42.5095 12.5003V12.4988Z" fill="#FFDF75"/>
<path d="M36.3324 0.00214542C35.885 -0.00104721 35.5174 0.354703 35.5061 0.802128C35.5061 1.24393 35.8643 1.60211 36.3061 1.60211H36.3326C39.0165 1.56395 41.6044 2.60095 43.5193 4.48186C45.4059 6.40322 46.4434 9.00094 46.3991 11.6934C46.4076 12.1315 46.7607 12.4849 47.199 12.4934C47.6409 12.4934 47.9991 12.1352 47.9991 11.6934C48.0456 8.57604 46.84 5.57025 44.6521 3.34924C42.4372 1.167 39.4413 -0.0382946 36.3324 0.00214542Z" fill="#FFDF75"/>
</g>
<defs>
<clipPath id="clip0_23_2472">
<rect width="48" height="48" fill="white"/>
</clipPath>
</defs>
</svg>
