<svg width="48" height="48" viewBox="0 0 48 48" fill="none" xmlns="http://www.w3.org/2000/svg">
<path d="M36.1641 16.3254L37.5052 16.0465C37.5498 16.0377 37.596 16.0558 37.6228 16.0937L39.8396 19.233C39.8611 19.2636 39.8849 19.2923 39.9109 19.3191L41.796 21.2621C42.0946 21.5697 42.4865 21.7234 42.8785 21.7234C43.2704 21.7234 43.6625 21.5696 43.9609 21.2621L47.5517 17.5612C47.8407 17.2631 48.0001 16.8669 48.0001 16.4454C48.0001 16.024 47.8409 15.6277 47.5517 15.3296L45.6665 13.3867C45.6406 13.36 45.6127 13.3355 45.5831 13.3132L42.6578 11.119C42.759 10.6579 42.6357 10.1543 42.2881 9.79586L41.509 8.99294C41.2344 8.71003 40.7893 8.70988 40.5147 8.99308C40.24 9.27606 40.2402 9.73501 40.5147 10.018L41.276 10.8026L41.2556 10.8236L37.5944 14.5971C37.4727 14.5915 37.3496 14.6 37.2271 14.6255L35.886 14.9044C35.429 14.9992 34.9618 14.8967 34.5864 14.6289C34.5836 14.627 34.5811 14.6245 34.5783 14.6225C34.5396 14.5946 34.5025 14.5651 34.4669 14.5347C34.4621 14.5307 34.4574 14.5268 34.4528 14.5227C34.4177 14.4921 34.384 14.4607 34.3524 14.4282L34.3508 14.4266L31.8221 11.8203L31.2761 11.2576L30.8882 10.8578C30.6835 10.6469 30.6835 10.3035 30.8882 10.0926L32.9459 7.97172C33.6911 7.20386 33.6931 5.95505 32.9504 5.18778C31.4308 3.61804 29.1452 3.13371 27.1585 3.92766L26.9675 3.73091C29.3981 1.87137 32.8321 2.09952 35.0133 4.34773L40.5147 10.018C40.7893 10.3009 40.9194 9.88315 41.194 9.60002C41.4686 9.31697 41.7835 9.27588 41.509 8.99294L36.0077 3.32272C33.1669 0.394696 28.595 0.258249 25.5991 3.01224C25.4187 3.17816 25.3111 3.41607 25.3043 3.66491C25.2974 3.91297 25.3911 4.15591 25.5614 4.3314L26.416 5.21232C26.6775 5.48164 27.0788 5.55325 27.414 5.3908C28.9396 4.65203 30.7646 4.98204 31.9549 6.21171C32.1471 6.4102 32.1456 6.74678 31.9517 6.94662L29.8939 9.06745C29.1817 9.80162 29.1441 10.9707 29.7793 11.752L23.9577 17.4819L7.67262 0.697743C7.64432 0.668656 7.61488 0.641211 7.58429 0.615507C7.57934 0.611352 7.57404 0.607873 7.56895 0.603717C7.54288 0.582458 7.51644 0.561875 7.48886 0.543127C7.48764 0.542257 7.48635 0.541678 7.48513 0.540809C7.29578 0.412574 7.07432 0.343384 6.84248 0.343384C6.61007 0.343384 6.38816 0.412864 6.19841 0.541678L6.19598 0.543127C6.16842 0.561971 6.14189 0.582555 6.11573 0.603814C6.11066 0.607873 6.10541 0.611352 6.10045 0.615507C6.06989 0.641211 6.04036 0.668656 6.01214 0.697743L1.3911 5.46057C0.933227 5.93254 0.933227 6.70049 1.3911 7.17246L3.80113 9.65637L7.04432 12.9989C7.319 13.2819 7.76411 13.282 8.03871 12.9989C8.31331 12.7158 8.31324 12.2569 8.03871 11.974L5.29298 9.14402L6.71236 7.68113C6.98694 7.39808 6.98694 6.93918 6.71236 6.65624C6.43767 6.3731 5.99264 6.37319 5.71795 6.65614L4.29848 8.11911L2.54948 6.31646L5.12404 3.66298L43.7322 43.4552L41.1576 46.1088L39.4087 44.3063L40.8281 42.8433C41.1027 42.5604 41.1028 42.1014 40.8282 41.8185C40.5536 41.5355 40.1084 41.5353 39.8338 41.8184L38.4142 43.2814L30.8797 35.5157L32.2991 34.0527C32.5737 33.7696 32.5737 33.3108 32.2991 33.0278C32.0246 32.7448 31.5793 32.7447 31.3047 33.0277L29.8853 34.4909L22.3508 26.7251L23.7702 25.2621C24.0448 24.9792 24.0448 24.5202 23.7702 24.2373C23.4956 23.9542 23.0503 23.9541 22.7758 24.2371L21.3563 25.7002L13.8218 17.9345L15.2413 16.4716C15.5158 16.1886 15.5158 15.7296 15.2413 15.4467C14.9665 15.1636 14.5216 15.1637 14.2468 15.4466L12.8274 16.9097L8.23881 12.1846C6.37062 10.323 6.98696 11.1631 6.71236 11.4462C6.43775 11.7292 6.90148 12.8228 7.17601 13.1058L17.5313 23.8077L0.61551 40.4574C0.224853 40.8419 0.00632237 41.3602 0.000134865 41.917C-0.00605263 42.4737 0.200853 42.9969 0.582697 43.3905L3.47057 46.367C3.84632 46.7543 4.34591 46.9677 4.87729 46.9677C5.35063 46.9677 5.81132 46.7905 6.16926 46.4763C6.22045 46.4313 6.26948 46.3837 6.31616 46.3332L22.4705 28.8986L40.3272 47.3031C40.5561 47.5389 40.8567 47.6568 41.1574 47.6568C41.4581 47.6568 41.7589 47.5388 41.9877 47.303L46.6088 42.5402C47.0667 42.0683 47.0667 41.3003 46.6088 40.8284L28.6078 22.2749L34.3088 16.122C34.8836 16.381 35.5293 16.4577 36.1641 16.3254ZM41.8248 12.2871L44.7111 14.452L46.5572 16.3547C46.5874 16.3858 46.5938 16.4213 46.5938 16.4455C46.5938 16.4698 46.5875 16.5052 46.5573 16.5362L42.9666 20.237C42.918 20.2873 42.839 20.2874 42.7903 20.237L40.9441 18.3343L38.8437 15.3595L41.8248 12.2871ZM1.57701 42.3655C1.47904 42.2645 1.42036 42.1345 1.40845 41.9943C1.40676 41.9743 1.40601 41.9539 1.4062 41.9336C1.40798 41.7704 1.4721 41.6185 1.58657 41.5057L15.8947 27.4227L16.1999 27.7373L1.73704 42.5304L1.57701 42.3655ZM3.31063 44.1522L2.73154 43.5553L17.1944 28.7623L17.6635 29.2458L3.31063 44.1522ZM5.29926 45.3321C5.21592 45.4221 5.11083 45.4817 4.9956 45.5059C4.95717 45.514 4.91761 45.5181 4.87739 45.5181C4.72167 45.5181 4.57514 45.4555 4.46498 45.3419L4.30513 45.1771L18.658 30.2707L18.9632 30.5853L5.29926 45.3321ZM19.9348 29.5368L16.912 26.4215L18.526 24.8329L21.476 27.8734L19.9348 29.5368ZM45.4506 41.6842L44.7265 42.4303L6.11845 2.63807L6.84239 1.89186L23.4491 19.0079L24.5463 20.1387L45.4506 41.6842ZM27.6132 21.2498L24.9525 18.5075L30.7676 12.7838L31.4323 13.4687L33.1666 15.2563L27.6132 21.2498Z" fill="#FFDF75"/>
</svg>
