<svg width="48" height="48" viewBox="0 0 48 48" fill="none" xmlns="http://www.w3.org/2000/svg">
<g clip-path="url(#clip0_23_2463)">
<path d="M45.5272 27.4558C44.6598 24.6382 44.6987 21.6194 45.6387 18.8252C45.7738 18.4194 45.5545 17.9811 45.1488 17.846C45.0697 17.8196 44.9867 17.8062 44.9032 17.8063H30.9677C30.719 17.8141 30.4889 17.9399 30.3484 18.1454C30.2042 18.3548 30.1669 18.6198 30.2477 18.8608C31.1751 21.645 31.21 24.6493 30.3476 27.4543C29.683 29.6235 29.1501 31.8308 28.752 34.0644H24.7742C24.3467 34.0644 24 34.411 24 34.8385V37.1612H22.378L19.4903 19.3547H24.7742V20.1289H23.2258V21.6773H24.7742V22.4514H23.2258V23.9998H24.7742V24.7741H26.3226V23.9998H27.8709V22.4514H26.3226V21.6773H27.8709V20.1289H26.3226V19.3547H27.0968V17.8063H19.3548V8.51597H22.4516V9.29021H20.9032V10.8386H22.4516V11.6128H20.9032V13.1612H22.4516V13.9353H24V13.1612H25.5484V11.6128H24V10.8386H25.5484V9.29021H24V8.51597H24.7742V6.9676H19.3548V4.64502C19.3547 4.41528 19.2527 4.19743 19.0761 4.05044L14.4309 0.179469C14.144 -0.0596602 13.727 -0.0596602 13.44 0.179469L8.79482 4.05044C8.61829 4.19743 8.5162 4.41528 8.51613 4.64502V6.9676H3.09677V8.51597H3.87097V9.29021H2.32258V10.8386H3.87097V11.6128H2.32258V13.1612H3.87097V13.9353H5.41936V13.1612H6.96774V11.6128H5.41936V10.8386H6.96774V9.29021H5.41936V8.51597H8.51613V17.8063H0.774197V19.3547H1.54839V20.1289H0V21.6773H1.54839V22.4514H0V23.9998H1.54839V24.7741H3.09677V23.9998H4.64516V22.4514H3.09677V21.6773H4.64516V20.1289H3.09677V19.3547H8.38066L3.88103 47.1018C3.81261 47.5239 4.09926 47.9215 4.52139 47.9899C4.68542 48.0165 4.85371 47.9896 5.00129 47.9132L13.9355 43.2812V47.2257C13.9355 47.6532 14.2822 47.9998 14.7097 47.9998H47.2258C47.6533 47.9998 48 47.6532 48 47.2257V43.909C48.0014 38.332 47.168 32.7862 45.5272 27.4558ZM43.8658 19.3547C43.7346 19.8652 43.6293 20.3819 43.5507 20.9031H32.3249C32.2436 20.3844 32.1437 19.868 32.0098 19.3547H43.8658ZM13.9355 16.0644L17.866 19.0125L18.0356 20.0561L13.9355 22.1813L9.83226 20.0561L10.0018 19.0125L13.9355 16.0644ZM18.2965 21.6649L18.7881 24.6982L15.6139 23.0538L18.2965 21.6649ZM15.226 15.0966L17.8064 13.1612V17.0321L15.226 15.0966ZM13.9355 14.1289L10.5809 11.6128L13.9355 9.09663L17.29 11.6128L13.9355 14.1289ZM15.226 8.12889L17.8064 6.1934V10.0644L15.226 8.12889ZM13.9355 7.16115L11.6129 5.41921H16.258L13.9355 7.16115ZM12.6449 8.12889L10.0645 10.0644V6.1934L12.6449 8.12889ZM12.6449 15.0966L10.0645 17.0321V13.1612L12.6449 15.0966ZM9.57442 21.6649L12.254 23.0538L9.07974 24.6982L9.57442 21.6649ZM8.44571 28.6257L8.77397 26.6019L13.9355 23.9225L19.097 26.5988L19.4253 28.6225L13.9355 31.4716L8.44571 28.6257ZM12.254 32.3418L7.43771 34.8385L8.18479 30.2321L12.254 32.3418ZM19.6862 30.2321L20.4333 34.8385L15.6171 32.3418L19.6862 30.2321ZM13.9355 1.7805L16.4423 3.87083H11.4287L13.9355 1.7805ZM5.65626 45.8321L6.67974 39.5209L11.3551 41.9457L12.0681 40.5707L6.94064 37.909L7.12877 36.7477L13.9355 33.2128L20.7422 36.7423L20.8096 37.1581H14.7097C14.2822 37.1581 13.9355 37.5047 13.9355 37.9322V41.533L5.65626 45.8321ZM28.6452 46.4515H15.4839V38.7095H24.7742C25.2017 38.7095 25.5484 38.3629 25.5484 37.9353V35.6128H29.4193V37.9353C29.4193 38.3629 29.766 38.7095 30.1936 38.7095H32.5161V46.4515H28.6452ZM46.4516 46.4515H34.0645V37.9353C34.0645 37.5078 33.7178 37.1612 33.2903 37.1612H30.9677V34.8385C30.9642 34.4646 30.6908 34.1478 30.3213 34.0899C30.7024 32.0029 31.2047 29.9397 31.8256 27.9111C32.2839 26.4217 32.5168 24.8722 32.5161 23.3139C32.5161 23.0259 32.5045 22.7387 32.4891 22.4514H43.3835C43.368 22.7387 43.3556 23.0259 43.3556 23.3139C43.3552 24.8723 43.5885 26.4219 44.0477 27.9111C45.6427 33.0939 46.453 38.4862 46.4516 43.909V46.4515Z" fill="#FFDF75"/>
<path d="M37.9354 25.5482C35.37 25.5482 33.2903 27.6278 33.2903 30.1933C33.2903 32.7588 35.37 34.8385 37.9354 34.8385C40.5009 34.8385 42.5806 32.7588 42.5806 30.1933C42.5776 27.6292 40.4997 25.5512 37.9354 25.5482ZM34.8387 30.1933C34.8435 28.8532 35.7113 27.6689 36.9878 27.2607L35.6949 29.8472C35.5038 30.2297 35.6589 30.6947 36.0413 30.8858C36.1487 30.9395 36.2671 30.9674 36.3871 30.9675H38.0376L36.6735 33.0145C35.5597 32.5175 34.8413 31.413 34.8387 30.1933ZM38.3798 33.2452L40.1279 30.623C40.3653 30.2673 40.2693 29.7866 39.9136 29.5493C39.7863 29.4645 39.6368 29.4191 39.4838 29.4191H37.6404L38.7422 27.2166C40.3868 27.6521 41.367 29.3384 40.9315 30.983C40.614 32.1818 39.6087 33.0733 38.3806 33.2452H38.3798Z" fill="#FFDF75"/>
<path d="M22.4518 40.2579H17.8067C17.3791 40.2579 17.0325 40.6045 17.0325 41.032V44.1288C17.0325 44.5564 17.3791 44.903 17.8067 44.903H22.4518C22.8794 44.903 23.226 44.5564 23.226 44.1288V41.032C23.226 40.6045 22.8794 40.2579 22.4518 40.2579ZM21.6777 43.3546H18.5809V41.8063H21.6777V43.3546Z" fill="#FFDF75"/>
<path d="M30.1935 40.2579H25.5483C25.1208 40.2579 24.7742 40.6045 24.7742 41.032V44.1288C24.7742 44.5564 25.1208 44.903 25.5483 44.903H30.1935C30.6211 44.903 30.9677 44.5564 30.9677 44.1288V41.032C30.9677 40.6045 30.6211 40.2579 30.1935 40.2579ZM29.4193 43.3546H26.3226V41.8063H29.4193V43.3546Z" fill="#FFDF75"/>
<path d="M44.129 8.90307C44.129 9.54433 43.609 10.0643 42.9677 10.0643C41.4712 10.0643 40.2581 11.2775 40.2581 12.774V16.2579H41.8064V12.774C41.8064 12.1327 42.3264 11.6127 42.9677 11.6127C44.4642 11.6127 45.6774 10.3995 45.6774 8.90307C45.6774 8.26173 46.1974 7.74175 46.8386 7.74175H48V6.19336H46.8386C45.3422 6.19336 44.129 7.40654 44.129 8.90307Z" fill="#FFDF75"/>
<path d="M35.6128 9.67722C35.6128 9.46344 35.7862 9.29014 36 9.29014C37.069 9.29014 37.9355 8.42363 37.9355 7.35466V5.41915C37.9355 3.70886 39.322 2.32237 41.0322 2.32237H48V0.773987H41.0322C38.4678 0.776501 36.3896 2.85473 36.3871 5.41915V7.35466C36.3871 7.56837 36.2137 7.74175 36 7.74175C34.931 7.74175 34.0645 8.60825 34.0645 9.67722V16.2579H35.6128V9.67722Z" fill="#FFDF75"/>
</g>
<defs>
<clipPath id="clip0_23_2463">
<rect width="48" height="48" fill="white"/>
</clipPath>
</defs>
</svg>
