<svg width="33" height="34" viewBox="0 0 33 34" xmlns="http://www.w3.org/2000/svg">
<g opacity="0.4">
<path d="M16.7287 0.813477C12.3054 0.813477 11.7542 0.834835 10.0231 0.908065C8.28494 0.993499 7.1092 1.26302 6.07178 1.66579C4.98601 2.07569 4.00271 2.71746 3.1904 3.54636C2.35919 4.35676 1.71706 5.34062 1.30983 6.42774C0.907067 7.46516 0.637542 8.6409 0.552108 10.3791C0.473793 12.1112 0.45752 12.6614 0.45752 17.0847C0.45752 21.5079 0.478878 22.0592 0.552108 23.7902C0.637542 25.5233 0.907067 26.7042 1.30983 27.7416C1.71973 28.8274 2.3615 29.8107 3.1904 30.623C4.00081 31.4542 4.98466 32.0963 6.07178 32.5035C7.1092 32.9012 8.29002 33.1758 10.0231 33.2613C11.7552 33.3396 12.3054 33.3559 16.7287 33.3559C21.152 33.3559 21.7032 33.3345 23.4343 33.2613C25.1674 33.1758 26.3482 32.9002 27.3856 32.5035C28.4714 32.0936 29.4547 31.4519 30.267 30.623C31.0993 29.8134 31.7416 28.8293 32.1476 27.7416C32.5453 26.7042 32.8199 25.5233 32.9053 23.7902C32.9836 22.0582 32.9999 21.5079 32.9999 17.0847C32.9999 12.6614 32.9785 12.1101 32.9053 10.3791C32.8199 8.64598 32.5442 7.45905 32.1476 6.42774C31.7377 5.34197 31.0959 4.35866 30.267 3.54636C29.4575 2.71408 28.4734 2.07178 27.3856 1.66579C26.3482 1.26302 25.1674 0.993499 23.4343 0.908065C21.7022 0.82975 21.152 0.813477 16.7287 0.813477ZM16.7287 3.74266C21.0726 3.74266 21.5913 3.76401 23.3082 3.83724C24.8918 3.91149 25.7542 4.17593 26.3269 4.39969C27.0348 4.661 27.6755 5.07691 28.2023 5.61713C28.7416 6.14176 29.156 6.78102 29.4147 7.48753C29.6385 8.06014 29.9029 8.92263 29.9771 10.5062C30.0504 12.223 30.0717 12.7428 30.0717 17.0857C30.0717 21.4286 30.0504 21.9483 29.971 23.6651C29.8856 25.2487 29.6212 26.1112 29.3984 26.6838C29.0903 27.4477 28.7465 27.9816 28.179 28.5593C27.6503 29.0962 27.01 29.5101 26.3035 29.7717C25.738 29.9954 24.8633 30.2599 23.2736 30.3341C21.5476 30.4073 21.0391 30.4287 16.684 30.4287C12.3288 30.4287 11.8213 30.4073 10.0933 30.328C8.50971 30.2426 7.63604 29.9781 7.06343 29.7554C6.29045 29.4472 5.76056 29.1035 5.19303 28.5359C4.62041 27.9633 4.2563 27.4182 3.97559 26.6604C3.74776 26.0949 3.48739 25.2203 3.40297 23.6306C3.345 21.9249 3.31754 21.396 3.31754 17.0613C3.31754 12.7285 3.345 12.1986 3.40297 10.4716C3.48739 8.88194 3.74776 8.00929 3.97559 7.44176C4.2563 6.66777 4.62143 6.13889 5.19303 5.56627C5.75954 4.99976 6.29045 4.63362 7.06343 4.3468C7.63604 4.12406 8.48836 3.85962 10.078 3.78029C11.804 3.71825 12.3126 3.69587 16.6616 3.69587L16.7287 3.74266ZM16.7287 8.73345C15.6316 8.73305 14.5452 8.94884 13.5316 9.36849C12.5179 9.78813 11.5969 10.4034 10.8212 11.1792C10.0454 11.9549 9.43014 12.8759 9.0105 13.8896C8.59085 14.9032 8.37506 15.9896 8.37546 17.0867C8.37506 18.1838 8.59085 19.2702 9.0105 20.2838C9.43014 21.2975 10.0454 22.2185 10.8212 22.9942C11.5969 23.77 12.5179 24.3853 13.5316 24.8049C14.5452 25.2246 15.6316 25.4403 16.7287 25.4399C17.8258 25.4403 18.9122 25.2246 19.9258 24.8049C20.9395 24.3853 21.8605 23.77 22.6362 22.9942C23.412 22.2185 24.0273 21.2975 24.4469 20.2838C24.8666 19.2702 25.0824 18.1838 25.082 17.0867C25.0824 15.9896 24.8666 14.9032 24.4469 13.8896C24.0273 12.8759 23.412 11.9549 22.6362 11.1792C21.8605 10.4034 20.9395 9.78813 19.9258 9.36849C18.9122 8.94884 17.8258 8.73305 16.7287 8.73345ZM16.7287 22.5108C13.7304 22.5108 11.3046 20.085 11.3046 17.0867C11.3046 14.0884 13.7304 11.6626 16.7287 11.6626C19.727 11.6626 22.1528 14.0884 22.1528 17.0867C22.1528 20.085 19.727 22.5108 16.7287 22.5108ZM27.3714 8.39985C27.3709 8.91822 27.1646 9.41517 26.7978 9.78152C26.4311 10.1479 25.9339 10.3537 25.4156 10.3537C25.1592 10.3537 24.9054 10.3032 24.6686 10.2051C24.4318 10.107 24.2167 9.96323 24.0354 9.78199C23.8542 9.60075 23.7104 9.38559 23.6124 9.14879C23.5143 8.91199 23.4638 8.65819 23.4638 8.40188C23.4638 8.14557 23.5143 7.89177 23.6124 7.65497C23.7104 7.41817 23.8542 7.20301 24.0354 7.02177C24.2167 6.84053 24.4318 6.69677 24.6686 6.59868C24.9054 6.5006 25.1592 6.45011 25.4156 6.45011C26.4906 6.45011 27.3714 7.3248 27.3714 8.39985Z"/>
</g>
</svg>
