<svg width="64" height="62" viewBox="0 0 64 62" fill="none" xmlns="http://www.w3.org/2000/svg">
<path fill-rule="evenodd" clip-rule="evenodd" d="M39.4292 42.3209L45.23 59.8613L38.5531 62L32.7598 44.4521C35.209 44.3285 37.4905 43.5607 39.4292 42.3209ZM24.5709 42.3209C26.5096 43.5607 28.791 44.3285 31.2478 44.4521L25.4469 62L18.7776 59.8613L24.5709 42.3209ZM44.7844 35.8711L59.955 46.7031L55.83 52.2953L40.6594 41.4519C42.48 39.9836 43.9159 38.0659 44.7844 35.8711ZM19.2156 35.8711C20.084 38.0659 21.5276 39.9836 23.352 41.4519L8.17758 52.2953L4.04499 46.7031L19.2156 35.8711ZM45.249 27.5485H64V34.4515H45.249C45.5537 33.3465 45.7099 32.1892 45.7099 30.9981C45.7099 29.8107 45.5537 28.6497 45.249 27.5485ZM18.7471 27.5485C18.4577 28.6497 18.3015 29.8107 18.3015 30.9981C18.3015 32.1892 18.4577 33.3465 18.7471 34.4515H0V27.5485H18.7471ZM40.6594 20.5481L55.83 9.71218L59.955 15.293L44.7844 26.1364C43.9159 23.9302 42.48 22.0125 40.6594 20.5481ZM23.352 20.5481C21.5276 22.0125 20.084 23.9302 19.2156 26.1364L4.04499 15.293L8.17758 9.71218L23.352 20.5481ZM32.7598 17.5441L38.5531 0L45.23 2.13874L39.4292 19.6753C37.4905 18.4393 35.209 17.6715 32.7598 17.5441ZM31.2478 17.5441C28.791 17.6715 26.5096 18.4393 24.5709 19.6753L18.7776 2.13874L25.4469 0L31.2478 17.5441Z" fill="#FCCD46"/>
</svg>
