<svg width="171" height="30" viewBox="0 0 171 30" fill="none" xmlns="http://www.w3.org/2000/svg">
<g clip-path="url(#clip0_23_2401)">
<path d="M131.756 0.268331C133.348 0.268331 134.94 0.268331 136.532 0.268331C136.532 1.99125 136.532 3.71768 136.532 5.44062C137.623 5.44062 138.716 5.44062 139.808 5.44062C139.808 6.92521 139.808 8.4133 139.808 9.89907C138.716 9.9014 137.623 9.89559 136.532 9.9014C136.528 13.7949 136.534 17.6872 136.528 21.5829C134.936 21.5806 133.348 21.5829 131.756 21.5806C131.756 17.6872 131.756 13.7949 131.758 9.9014C130.766 9.89559 129.779 9.9014 128.79 9.89907C128.79 8.4133 128.79 6.92521 128.79 5.44062C129.779 5.44062 130.766 5.44062 131.756 5.44062C131.756 3.71768 131.756 1.99125 131.756 0.268331ZM70.9518 7.37163C72.5133 5.24994 75.7008 4.75006 77.9844 5.92309C78.9917 6.40788 79.695 7.32398 80.2026 8.29473C81.4929 5.7766 84.7457 4.7919 87.3634 5.55687C88.7166 5.91378 89.8762 6.87524 90.5169 8.10988C91.2947 9.56893 91.4986 11.2535 91.4894 12.8834C91.4858 15.7829 91.495 18.6847 91.4858 21.5829C89.9031 21.5806 88.3207 21.5806 86.7404 21.5829C86.7344 19.3392 86.7404 17.0954 86.7368 14.854C86.7311 13.86 86.7752 12.8567 86.6333 11.872C86.4655 11.1047 86.0812 10.3304 85.378 9.92583C84.4147 9.40732 83.1305 9.44684 82.2626 10.1374C81.43 10.8419 81.2484 11.9906 81.1984 13.0206C81.1927 15.8747 81.1984 18.7288 81.1948 21.5806C79.6276 21.5806 78.0553 21.5829 76.4878 21.5806C76.4878 18.9846 76.4878 16.3897 76.4878 13.7949C76.5111 12.7114 76.4729 11.5383 75.8382 10.6129C75.0601 9.47009 73.3543 9.29223 72.2188 9.97C71.3185 10.5629 70.9694 11.7057 70.9822 12.7323C70.9458 15.6817 70.9786 18.6312 70.967 21.5806C69.3774 21.5829 67.7855 21.5806 66.1971 21.5829C66.1935 16.2026 66.1971 10.821 66.1971 5.44062C67.7855 5.44062 69.3774 5.44062 70.967 5.44062C70.9634 6.08351 70.9786 6.72875 70.9518 7.37163V7.37163ZM97.3945 6.69619C100.182 4.77678 104.177 4.85699 106.913 6.82988C106.907 6.36952 106.907 5.90214 106.911 5.44062C108.478 5.44062 110.049 5.44062 111.618 5.44062C111.618 10.821 111.622 16.1991 111.618 21.5806C110.049 21.5829 108.478 21.5806 106.911 21.5806C106.911 21.1423 106.911 20.7052 106.907 20.2704C104.949 21.6492 102.4 22.0561 100.078 21.5481C98.1991 21.1365 96.4885 19.9821 95.4358 18.3696C94.1724 16.4618 93.809 14.0471 94.2085 11.815C94.56 9.78863 95.6803 7.86922 97.3945 6.69619ZM102.099 9.49101C100.536 9.70842 99.2309 10.9965 98.9038 12.5242C98.6999 13.7356 98.8221 15.0772 99.6071 16.0747C100.943 17.9557 103.962 18.1731 105.614 16.5978C107.29 15.0679 107.326 12.158 105.715 10.571C104.788 9.65494 103.376 9.22363 102.099 9.49101V9.49101ZM117.911 5.76497C120.013 5.05348 122.431 5.143 124.393 6.2172C125.897 7.05309 126.855 8.67607 126.975 10.3781C125.555 10.3781 124.139 10.3804 122.723 10.3746C122.35 9.09806 120.612 8.75047 119.577 9.4108C119.046 9.78515 119.145 10.6245 119.742 10.8745C121.575 11.7766 123.715 11.9429 125.465 13.0415C126.64 13.7949 127.516 15.0958 127.449 16.5269C127.552 17.7174 127.138 18.9311 126.306 19.7949C125.009 21.1633 123.057 21.7027 121.217 21.7469C119.381 21.8248 117.494 21.3307 116.021 20.2088C114.886 19.2973 114.277 17.8627 114.143 16.4374C115.633 16.4409 117.127 16.4432 118.62 16.4374C119.014 17.8895 120.863 18.2882 122.111 17.7499C122.652 17.5302 122.962 16.7676 122.564 16.2863C122.073 15.7503 121.322 15.5957 120.659 15.3632C118.922 14.8063 116.967 14.4761 115.625 13.1368C114.48 12.0475 114.274 10.2944 114.674 8.83649C115.121 7.32979 116.453 6.24395 117.911 5.76497V5.76497ZM147.261 5.59524C150.656 4.64541 154.606 6.08003 156.496 9.07482C157.614 10.7594 157.943 12.8869 157.57 14.8575C153.664 14.854 149.76 14.8575 145.854 14.854C146.143 15.848 146.727 16.7978 147.646 17.3186C149.129 18.2266 151.449 17.9023 152.24 16.2258C153.899 16.2258 155.563 16.22 157.224 16.2316C156.475 18.4289 154.797 20.3332 152.615 21.1877C151.067 21.7922 149.339 21.8992 147.713 21.5865C145.267 21.0923 143.081 19.4287 141.975 17.1931C141.122 15.5446 140.95 13.6007 141.301 11.7941C141.907 8.82137 144.331 6.34509 147.261 5.59524V5.59524ZM148.799 9.32128C147.43 9.53521 146.322 10.6582 145.955 11.9638C148.271 11.9731 150.593 11.9731 152.911 11.9673C152.445 10.2351 150.593 8.92833 148.799 9.32128ZM165.16 7.24378C166.403 5.65452 168.606 4.97327 170.55 5.44991C170.55 7.05309 170.55 8.65747 170.546 10.2618C169.361 10.0026 168.043 9.93396 166.945 10.542C165.86 11.0919 165.18 12.2823 165.174 13.4856C165.148 16.184 165.172 18.8834 165.163 21.5806C163.586 21.5806 162.011 21.5829 160.435 21.5806C160.435 16.1991 160.435 10.821 160.435 5.44062C162.011 5.44062 163.586 5.44062 165.163 5.44062C165.163 6.04166 165.166 6.64038 165.16 7.24378ZM19.7059 5.43711C21.6309 5.44294 23.5546 5.44062 25.4796 5.43711C26.4275 6.988 27.3673 8.54119 28.3245 10.0898C29.248 8.53538 30.1935 6.99381 31.1207 5.44062C33.0432 5.44062 34.9658 5.44062 36.8883 5.44062C35.1545 8.02967 33.4403 10.6315 31.7073 13.2229C31.7133 13.4194 31.8716 13.5623 31.9637 13.7286C33.6907 16.3456 35.4433 18.9497 37.148 21.5829C35.2639 21.5806 33.3798 21.5865 31.4954 21.5806C30.452 19.86 29.3679 18.1696 28.3327 16.449C27.245 18.1464 26.1958 19.8693 25.1372 21.5829C23.2414 21.5771 21.3421 21.5829 19.4427 21.5829C21.2675 18.8218 23.083 16.0537 24.9311 13.3101C23.2146 10.6664 21.4585 8.05059 19.7059 5.43711ZM37.0469 5.44294C38.7587 5.43711 40.4657 5.43711 42.1742 5.44294C43.3876 8.63651 44.6337 11.815 45.8506 15.0063C45.9332 15.226 46.0381 15.4376 46.1428 15.6492C46.2256 15.3515 46.321 15.0621 46.4376 14.7773C47.6474 11.6662 48.7957 8.52958 50.0323 5.43479C51.714 5.44991 53.3989 5.43131 55.0806 5.44294C53.7179 9.02134 52.2718 12.566 50.8801 16.1305C49.1111 20.5808 47.3773 25.0451 45.5886 29.4885C43.9418 29.4757 42.3 29.4827 40.6544 29.485C41.6177 26.9227 42.7204 24.408 43.6741 21.8422C41.5068 16.3607 39.2384 10.9163 37.0469 5.44294" fill="#FCCD46"/>
<path fill-rule="evenodd" clip-rule="evenodd" d="M12.1809 16.8536L13.9544 22.298L11.913 22.9618L10.1418 17.5151C10.8906 17.4768 11.5881 17.2384 12.1809 16.8536ZM7.63805 16.8536C8.2308 17.2384 8.92833 17.4768 9.67947 17.5151L7.90588 22.9618L5.86682 22.298L7.63805 16.8536ZM13.8182 14.8517L18.4565 18.2138L17.1953 19.9496L12.557 16.5839C13.1136 16.1282 13.5526 15.5329 13.8182 14.8517ZM6.00073 14.8517C6.26624 15.5329 6.7076 16.1282 7.26541 16.5839L2.62596 19.9496L1.36245 18.2138L6.00073 14.8517ZM13.9602 12.2684H19.6932V14.411H13.9602C14.0534 14.0681 14.1011 13.7088 14.1011 13.3391C14.1011 12.9706 14.0534 12.6102 13.9602 12.2684ZM5.85749 12.2684C5.76901 12.6102 5.72125 12.9706 5.72125 13.3391C5.72125 13.7088 5.76901 14.0681 5.85749 14.411H0.125732V12.2684H5.85749ZM12.557 10.0956L17.1953 6.73224L18.4565 8.46447L13.8182 11.8301C13.5526 11.1454 13.1136 10.5501 12.557 10.0956ZM7.26541 10.0956C6.7076 10.5501 6.26624 11.1454 6.00073 11.8301L1.36245 8.46447L2.62596 6.73224L7.26541 10.0956ZM10.1418 9.16319L11.913 3.71768L13.9544 4.38152L12.1809 9.82468C11.5881 9.44105 10.8906 9.20271 10.1418 9.16319ZM9.67947 9.16319C8.92833 9.20271 8.2308 9.44105 7.63805 9.82468L5.86682 4.38152L7.90588 3.71768L9.67947 9.16319Z" fill="#FCCD46"/>
</g>
<defs>
<clipPath id="clip0_23_2401">
<rect width="171" height="30" fill="white"/>
</clipPath>
</defs>
</svg>
