<svg width="274" height="338" viewBox="0 0 274 338" fill="none" xmlns="http://www.w3.org/2000/svg">
<g filter="url(#filter0_f_125_32)">
<path fill-rule="evenodd" clip-rule="evenodd" d="M138.075 227.065L167.804 317.03L133.584 328L103.894 237.996C116.446 237.362 128.139 233.424 138.075 227.065ZM61.9256 227.065C71.8616 233.424 83.554 237.362 96.145 237.996L66.4151 328L32.2353 317.03L61.9256 227.065ZM165.52 193.984L243.27 249.542L222.129 278.224L144.379 222.608C153.71 215.077 161.069 205.241 165.52 193.984ZM34.48 193.984C38.9305 205.241 46.3289 215.077 55.6791 222.608L-22.0899 278.224L-43.2694 249.542L34.48 193.984ZM167.901 151.297H264V186.703H167.901C169.463 181.035 170.263 175.099 170.263 168.99C170.263 162.9 169.463 156.945 167.901 151.297ZM32.0788 151.297C30.5957 156.945 29.7951 162.9 29.7951 168.99C29.7951 175.099 30.5957 181.035 32.0788 186.703H-64V151.297H32.0788ZM144.379 115.392L222.129 59.8141L243.27 88.4385L165.52 144.054C161.069 132.739 153.71 122.903 144.379 115.392ZM55.6791 115.392C46.3289 122.903 38.9305 132.739 34.48 144.054L-43.2694 88.4385L-22.0899 59.8141L55.6791 115.392ZM103.894 99.9845L133.584 10L167.804 20.9696L138.075 110.915C128.139 104.576 116.446 100.638 103.894 99.9845ZM96.145 99.9845C83.554 100.638 71.8616 104.576 61.9256 110.915L32.2353 20.9696L66.4151 10L96.145 99.9845Z" fill="#FCCD46"/>
</g>
<defs>
<filter id="filter0_f_125_32" x="-74" y="0" width="348" height="338" filterUnits="userSpaceOnUse" color-interpolation-filters="sRGB">
<feFlood flood-opacity="0" result="BackgroundImageFix"/>
<feBlend mode="normal" in="SourceGraphic" in2="BackgroundImageFix" result="shape"/>
<feGaussianBlur stdDeviation="5" result="effect1_foregroundBlur_125_32"/>
</filter>
</defs>
</svg>
