<svg width="41" height="30" viewBox="0 0 41 30" fill="none" xmlns="http://www.w3.org/2000/svg">
<path d="M38.95 0.0131615C38.7753 -0.00438717 38.5993 -0.00438717 38.4247 0.0131615H2.54967C2.31974 0.0166164 2.09134 0.0502364 1.87061 0.113116L20.3847 18.0925L38.95 0.0131615Z" fill="#FCCD46"/>
<path d="M40.8463 1.75024L22.1912 19.867C21.7111 20.3324 21.0617 20.5937 20.3847 20.5937C19.7077 20.5937 19.0582 20.3324 18.5781 19.867L0.0896876 1.88768C0.0328505 2.09139 0.00271457 2.3013 0 2.5124V27.5011C0 28.1638 0.269977 28.7994 0.750539 29.268C1.2311 29.7367 1.88288 29.9999 2.5625 29.9999H38.4375C39.1171 29.9999 39.7689 29.7367 40.2495 29.268C40.73 28.7994 41 28.1638 41 27.5011V2.5124C40.9898 2.25209 40.9379 1.99493 40.8463 1.75024ZM4.31781 27.5011H2.53688V25.7144L11.8516 16.706L13.6581 18.4677L4.31781 27.5011ZM38.4119 27.5011H36.6181L27.2778 18.4677L29.0844 16.706L38.3991 25.7144L38.4119 27.5011Z" fill="#FCCD46"/>
</svg>
