<svg width="48" height="48" viewBox="0 0 48 48" fill="none" xmlns="http://www.w3.org/2000/svg">
<g clip-path="url(#clip0_23_2437)">
<path d="M46.8176 43.8778H45.1166V39.8512H46.8176C47.206 39.8512 47.5207 39.5365 47.5207 39.1482C47.5207 38.7597 47.206 38.445 46.8176 38.445H45.1166V37.0876C45.1166 36.3381 44.5068 35.7282 43.7572 35.7282H38.3284C36.5373 35.7282 36.8955 36.0429 36.8955 36.4314C36.8955 36.8197 36.1489 37.1344 36.5373 37.1344H43.7103V41.161H21.6381C21.6381 38.7446 21.6381 37.8939 21.6381 37.1344H37.1726C37.561 37.1344 37.8757 36.8197 37.8757 36.4314C37.8757 36.0429 37.561 35.7282 37.1726 35.7282H34.4379V18.809C34.4379 15.7597 31.957 13.2787 28.9076 13.2787H27.5014L19.0232 3.17522C18.8054 2.91563 18.4996 2.75653 18.1624 2.72719C18.0939 2.72118 18.0259 2.72212 17.9585 2.727V0.703125C17.9585 0.314719 17.6438 0 17.2554 0C16.867 0 16.5523 0.314719 16.5523 0.703125V12.2795H15.1376V0.703125C15.1376 0.314719 14.8229 0 14.4345 0C14.0461 0 13.7314 0.314719 13.7314 0.703125V8.13392L4.38503 15.9761L4.12984 15.6719C3.6805 15.1367 2.87978 15.0668 2.34428 15.5158L0.932128 16.7008C0.672719 16.9184 0.513625 17.224 0.484188 17.5613C0.454657 17.8986 0.55825 18.227 0.775841 18.4864L5.50787 24.1258C5.75744 24.4232 5.43388 23.5331 5.73135 23.2836C6.02882 23.034 6.83472 23.5194 6.58506 23.2219L1.94228 17.6889L3.1419 16.6824L3.75663 17.4151C3.75766 17.4164 3.7585 17.4177 3.75953 17.4191C3.75953 17.4191 3.76159 17.4211 3.76253 17.4222L14.4809 30.1959L13.2813 31.2025L6.58506 23.2219C6.3355 22.9245 5.89197 22.8857 5.5945 23.1353C5.29703 23.3848 5.25822 23.8283 5.50787 24.1258L12.2936 32.2127C12.7414 32.7461 13.5422 32.8193 14.0792 32.3689L15.4913 31.1839C16.0278 30.7338 16.0981 29.935 15.6476 29.3982L15.3921 29.0938L26.9317 19.4116L27.1869 19.7158C27.4372 20.0141 27.7967 20.1677 28.1586 20.1677C28.4462 20.1677 28.7354 20.0706 28.9724 19.8716L29.158 19.7159V35.728H21.5913C20.8418 35.728 20.232 36.3379 20.232 37.0874V38.4448H18.5314C18.143 38.4448 17.8283 38.7595 17.8283 39.1479C17.8283 39.5363 18.143 39.851 18.5314 39.851H20.232V43.8777H18.5314C18.143 43.8777 17.8283 44.1924 17.8283 44.5807C17.8283 44.9692 18.143 45.2838 18.5314 45.2838H20.232V46.6405C20.232 47.39 20.8418 47.9998 21.5913 47.9998H43.7574C44.507 47.9998 45.1168 47.39 45.1168 46.6405V45.2838H46.8178C47.2062 45.2838 47.5209 44.9692 47.5209 44.5807C47.5209 44.1924 47.206 43.8778 46.8176 43.8778ZM28.9076 14.685C31.1816 14.685 33.0317 16.5351 33.0317 18.809V35.7282H30.5642V18.6525C30.5642 18.6052 30.5612 18.5578 30.5567 18.5107C30.9283 18.0499 30.9361 17.3741 30.5412 16.9012L28.6816 14.685H28.9076ZM19.1741 13.6857C19.2436 13.6857 19.3001 13.7423 19.3001 13.8117V17.3416C19.3001 18.2755 18.9334 19.1503 18.2674 19.8052C16.0752 21.9612 12.3899 20.3721 12.3899 17.2731V13.8116C12.3899 13.7422 12.4466 13.6857 12.516 13.6857L19.1741 13.6857ZM14.4883 28.0167L5.28906 17.0534L13.7314 9.96967V12.2795H12.516C11.6711 12.2795 10.9837 12.9669 10.9837 13.8117V17.2733C10.9837 21.6204 16.1799 23.8308 19.2535 20.8079C20.1904 19.8865 20.7063 18.6555 20.7063 17.3416V13.8117C20.7063 12.9669 20.0189 12.2795 19.1741 12.2795H17.9585V8.7183L26.0277 18.3345L14.4883 28.0167ZM28.1746 18.7053C27.4217 17.8079 22.0743 11.4352 17.9585 6.53053V4.25016L18.0353 4.18575C19.2333 5.61356 27.6225 15.6107 29.3744 17.6984L28.1746 18.7053ZM43.7105 46.5937H21.6381C21.6381 44.1773 21.6381 43.3267 21.6381 42.5673H43.7105V46.5937Z" fill="#FFDF75"/>
<path d="M15.6609 19.3469C16.217 19.3954 16.7663 19.2274 17.2037 18.8604C17.6362 18.4976 17.9015 17.9879 17.9507 17.4254C18 16.863 17.8273 16.3151 17.4644 15.8826C17.1015 15.4501 16.5918 15.1848 16.0294 15.1356C15.4666 15.0868 14.9189 15.2592 14.4865 15.6219C14.0539 15.9849 13.7886 16.4945 13.7394 17.057C13.6902 17.6194 13.863 18.1674 14.2258 18.5998C14.5888 19.0325 15.0983 19.2978 15.6609 19.3469ZM15.1403 17.1796C15.1569 16.9914 15.2456 16.8209 15.3905 16.6993C15.689 16.4485 16.1353 16.4864 16.387 16.7865C16.5085 16.9313 16.5663 17.1147 16.5499 17.3029C16.5159 17.6917 16.1738 17.98 15.7834 17.946C15.3946 17.9121 15.1063 17.5699 15.1403 17.1796Z" fill="#FFDF75"/>
</g>
<defs>
<clipPath id="clip0_23_2437">
<rect width="48" height="48" fill="white"/>
</clipPath>
</defs>
</svg>
