<svg width="48" height="48" viewBox="0 0 48 48" fill="none" xmlns="http://www.w3.org/2000/svg">
<g clip-path="url(#clip0_33_2713)">
<path d="M24.4784 14.9662L3.72115 34.9385C3.41326 35.2369 2.8661 35.2321 2.55981 34.9274C2.24874 34.6163 2.24396 34.0851 2.54864 33.766L22.0952 12.9524C22.3999 12.6349 22.4063 12.5016 22.0952 12.1905C21.7841 11.8794 21.3333 11.8095 21.3333 11.8095L1.40007 32.6606C0.492383 33.6049 0.50674 35.1284 1.43357 36.0552C1.88822 36.5099 2.4976 36.7603 3.14686 36.7603C3.77857 36.7603 4.37679 36.5226 4.82824 36.0887L25.56 16.1387C25.0351 15.8946 24.681 15.4654 24.4784 14.9662Z" fill="#FFDF75"/>
<path d="M33.4853 36.0185C33.5124 35.9755 33.5475 35.9404 33.5779 35.8989C33.7868 35.0247 34.251 34.2223 34.9912 33.6815C34.2909 29.9949 31.0781 27.1905 27.1905 27.1905C22.7924 27.1905 19.2144 30.7686 19.2144 35.1666C19.2144 37.4782 20.2193 39.5456 21.7938 41.0037C22.3187 40.7261 22.9344 40.5506 23.6682 40.5506C23.7257 40.5506 23.7719 40.565 23.8294 40.5666C22.0235 39.4387 20.8096 37.4479 20.8096 35.1666C20.8096 31.6476 23.673 28.7857 27.1905 28.7857C30.708 28.7857 33.5715 31.6476 33.5715 35.1666C33.5715 35.4586 33.5236 35.7362 33.4853 36.0185Z" fill="#FFDF75"/>
<path d="M47.1306 47.9285H12.833C12.5378 47.9285 12.2683 47.7659 12.131 47.5074C11.9907 47.2474 12.0066 46.9332 12.1694 46.6891L15.3598 41.9034C15.4747 41.7295 15.6549 41.6082 15.8591 41.5652L31.0139 38.3747C31.2357 38.3253 31.4622 38.3763 31.644 38.5071L35.2413 30.8388C35.3115 30.6904 35.4248 30.5676 35.5683 30.4847L41.1516 27.2942C41.292 27.2144 41.4484 27.1825 41.6015 27.1905L42.9957 19.4696C43.0372 19.2414 43.1744 19.0436 43.3722 18.9256L46.7222 16.9315C46.9678 16.7848 47.2757 16.7816 47.5247 16.9235C47.7735 17.0655 47.9282 17.3319 47.9282 17.6191V47.131C47.9282 47.5713 47.5709 47.9285 47.1306 47.9285ZM14.3245 46.3333H46.333V19.0213L44.5016 20.1124L42.3337 32.1182C42.2587 32.5234 41.9157 32.8121 41.477 32.7706C41.0639 32.7339 40.7496 32.3893 40.7496 31.9762V29.3632L36.5797 31.7465L31.8227 41.8874C31.66 42.232 31.2787 42.4139 30.9134 42.3245C30.5465 42.2352 30.2897 41.9002 30.3024 41.5221L30.3486 40.1454L16.5068 43.0599L14.3245 46.3333Z" fill="#FFDF75"/>
<path d="M46.3333 18.4167V12.0357C46.3333 11.5954 46.6906 11.2381 47.1309 11.2381C47.5712 11.2381 47.9285 11.5954 47.9285 12.0357V18.4167C47.9285 18.857 47.5712 19.2143 47.1309 19.2143C46.6906 19.2143 46.3333 18.857 46.3333 18.4167Z" fill="#FFDF75"/>
<path d="M4.0596 47.9285H2.46437C2.02408 47.9285 1.66675 47.5713 1.66675 47.131C1.66675 46.6906 2.02408 46.3333 2.46437 46.3333H4.0596C4.49989 46.3333 4.85722 46.6906 4.85722 47.131C4.85722 47.5713 4.49989 47.9285 4.0596 47.9285Z" fill="#FFDF75"/>
<path d="M13.6309 47.9285H7.25001C6.80973 47.9285 6.45239 47.5713 6.45239 47.131C6.45239 46.6906 6.80973 46.3333 7.25001 46.3333H13.6309C14.0712 46.3333 14.4286 46.6906 14.4286 47.131C14.4286 47.5713 14.0712 47.9285 13.6309 47.9285Z" fill="#FFDF75"/>
<path d="M39.1547 9.64282C38.7145 9.64282 38.3572 10.0002 38.3572 10.4405V18.4167C38.3572 18.857 38.7145 19.2143 39.1547 19.2143C39.595 19.2143 39.9524 18.857 39.9524 18.4167V10.4405C39.9524 10.0002 39.595 9.64282 39.1547 9.64282Z" fill="#FFDF75"/>
<path d="M31.5358 24.2169L24.8884 20.8941C24.4944 20.6994 24.0158 20.8574 23.818 21.2514C23.6218 21.6454 23.7814 22.124 24.1754 22.3218L30.8227 25.6446C30.9376 25.7021 31.0588 25.7292 31.1801 25.7292C31.472 25.7292 31.7527 25.5681 31.8931 25.2889C32.0877 24.8933 31.9298 24.4148 31.5358 24.2169Z" fill="#FFDF75"/>
<path d="M31.153 11.1456L30.0156 12.2845C33.2508 16.204 35.3373 20.4298 35.725 23.9553C34.4935 22.1208 31.7353 18.2523 27.8956 14.0616C27.5988 13.7378 27.1012 13.7282 26.7901 14.0393L25.6622 15.1671L22.2772 11.7837L23.3172 10.7451C23.6283 10.434 23.6219 9.93635 23.2997 9.63807C19.0994 5.74885 15.475 3.0513 13.5799 1.7815C16.5136 2.1149 19.6769 3.45011 22.81 5.61804C23.1721 5.86849 23.7112 5.82702 24.0223 5.51594C24.3541 5.18413 24.3207 4.71833 23.9601 4.46628C19.6929 1.45766 15.3187 -0.0929106 11.4439 0.119256C10.9286 0.146375 10.5984 0.347375 10.4564 0.715876C10.3942 0.878587 10.2969 1.30133 10.7228 1.72726C10.9446 1.9474 11.3258 2.20104 12.0198 2.66047C13.7458 3.80426 17.0416 6.0025 21.5991 10.2059L20.5846 11.2205C20.2735 11.5316 20.2735 12.0373 20.5846 12.3483L25.0975 16.8613C25.4086 17.1723 25.9143 17.1723 26.2253 16.8613L27.2367 15.8483C31.386 20.3469 33.5921 23.6298 34.7376 25.3511C35.2177 26.069 35.4809 26.4662 35.7138 26.6991C36.1286 27.1155 36.529 27.0516 36.7316 26.9783C37.1001 26.8427 37.3075 26.5172 37.3505 26.0148C37.7095 21.6821 35.3677 16.1897 31.153 11.1456Z" fill="#FFDF75"/>
<path d="M26.2254 5.58136L25.0976 6.70919C24.7849 7.02027 24.7849 7.52595 25.0976 7.837C25.4086 8.14809 25.9143 8.14809 26.2254 7.837L26.7901 7.27232L30.1736 10.6558C30.1736 10.6558 29.9215 10.9079 29.6089 11.2205C29.2962 11.5332 29.2978 12.0373 29.6089 12.3484C29.9199 12.6594 30.5516 12.5334 31.0191 12.066L31.8662 11.2205C32.1772 10.9095 32.1772 10.4038 31.8662 10.0927L27.3532 5.58136C27.0406 5.2687 26.5365 5.2687 26.2254 5.58136Z" fill="#FFDF75"/>
<path d="M31.2744 10.2985C31.0255 10.2985 30.7799 10.182 30.6251 9.96509C30.3683 9.60615 30.4529 9.1084 30.8102 8.85316C31.4483 8.39694 31.4275 8.00135 31.4212 7.87054C31.3892 7.24998 30.732 6.45236 29.8227 5.93231C29.4398 5.71377 29.3074 5.22562 29.526 4.84436C29.7445 4.46151 30.2311 4.3291 30.6139 4.54765C31.7275 5.18415 32.943 6.37101 33.0132 7.78916C33.0451 8.42726 32.8489 9.35412 31.7354 10.1486C31.5966 10.249 31.4339 10.2985 31.2744 10.2985Z" fill="#FFDF75"/>
</g>
<defs>
<clipPath id="clip0_33_2713">
<rect width="48" height="48" fill="white"/>
</clipPath>
</defs>
</svg>
