<svg width="48" height="48" viewBox="0 0 48 48" fill="none" xmlns="http://www.w3.org/2000/svg">
<g clip-path="url(#clip0_23_2456)">
<path d="M24 15.4839C22.7195 15.4839 21.6775 16.5259 21.6775 17.8064C21.6775 19.087 22.7195 20.129 24 20.129C25.2806 20.129 26.3226 19.087 26.3226 17.8064C26.3226 16.526 25.2806 15.4839 24 15.4839ZM24 18.5807C23.5728 18.5807 23.2259 18.2331 23.2259 17.8065C23.2259 17.38 23.5728 17.0324 24 17.0324C24.4274 17.0324 24.7742 17.38 24.7742 17.8065C24.7742 18.2331 24.4274 18.5807 24 18.5807Z" fill="#FFDF75"/>
<path d="M12.3869 22.7729V4.64514H8.86129L8.37892 5.29858C6.94983 7.23712 6.19336 9.53417 6.19336 11.9435C6.19336 14.9326 7.35774 17.743 9.47132 19.8565L12.3869 22.7729ZM10.5661 18.7618C9.6161 17.8119 8.89532 16.6971 8.41689 15.4839H10.8386V19.0335L10.5661 18.7618ZM10.8386 12.3871V13.9355H7.95079C7.84476 13.4299 7.78666 12.912 7.76352 12.3871H10.8386ZM7.81152 10.8388C7.87112 10.3123 7.97407 9.79509 8.11807 9.29037H10.8386V10.8388H7.81152ZM9.62542 6.21836L9.64326 6.19361H10.8386V7.74198H8.70955C8.96732 7.2124 9.26857 6.70145 9.62542 6.21836Z" fill="#FFDF75"/>
<path d="M46.4516 38.7096V34.0645C46.4516 33.2106 45.7572 32.5161 44.9033 32.5161H43.3549V21.535C44.2538 21.2144 44.9033 20.3627 44.9033 19.3547C44.9033 18.3467 44.2538 17.4951 43.3549 17.1746V15.4837C44.2089 15.4837 44.9033 14.7894 44.9033 13.9354V10.8386C44.9033 9.98464 44.2089 9.29022 43.3549 9.29022H16.9138L15.3654 0H8.96984L7.656 1.31381C4.71563 4.25419 3.09675 8.16236 3.09675 12.3198V29.5618C2.19788 29.8824 1.54837 30.734 1.54837 31.742C1.54837 32.75 2.19797 33.6016 3.09675 33.9221V37.1614H0V41.8065H3.09675V46.4516C3.096 46.4516 3.09515 46.4516 3.09366 46.4516C2.65931 46.4516 2.4735 46.2836 2.09419 45.9043C1.67222 45.4824 1.09397 44.9033 0 44.9033V46.4516C0.434343 46.4516 0.620156 46.6196 0.999467 46.9989C1.42144 47.4209 1.99978 48 3.09366 48C4.18837 48 4.76672 47.4209 5.18859 46.9989C5.56791 46.6196 5.75456 46.4516 6.18806 46.4516C6.62315 46.4516 6.80897 46.6196 7.18825 46.9989C7.61036 47.4209 8.18866 48 9.28334 48C10.3787 48 10.9571 47.4216 11.3806 46.9998C11.7607 46.6196 11.9481 46.4516 12.3839 46.4516C12.8197 46.4516 13.0063 46.6196 13.3865 46.9998C13.8092 47.4218 14.3883 48 15.4837 48H48V40.258C48 39.4041 47.3055 38.7096 46.4516 38.7096ZM44.9033 38.7096C44.0493 38.7096 43.3549 39.4041 43.3549 40.258H36.206L39.9221 34.0645H44.9033V38.7096ZM20.1291 17.8064C20.1291 15.672 21.8656 13.9355 24 13.9355C26.1344 13.9355 27.8709 15.672 27.8709 17.8064V21.6774H20.1291V17.8064ZM30.9678 40.258H30.7974L26.5394 23.2258H28.0405L31.9401 38.8235C31.3711 39.0527 30.9678 39.6078 30.9678 40.258ZM24.9445 23.2258L26.1058 27.8709H21.8942L23.0555 23.2258H24.9445ZM21.5071 29.4193H26.4921L27.6534 34.0645H20.3458L21.5071 29.4193ZM19.9587 35.6129H28.0413L29.2026 40.258H23.2258C23.2258 39.4041 22.5314 38.7096 21.6774 38.7096H20.1291C19.7234 38.7096 19.3573 38.8699 19.0809 39.1254L19.9587 35.6129ZM20.1291 40.258H21.6774V46.4516H20.1291V40.258ZM18.5807 46.4516H17.2491L18.5807 41.1267V46.4516ZM23.2258 41.8064H24.7742V46.4515H23.2258V41.8064ZM26.3226 41.8064H27.8709V46.4515H26.3226V41.8064ZM29.4193 41.8064H30.9677V46.4515H29.4193V41.8064ZM32.5161 40.258H34.0645V46.4516H32.5161V40.258ZM35.6129 41.8064H37.1613V46.4515H35.6129V41.8064ZM38.7096 41.8064H40.258V46.4515H38.7096V41.8064ZM42.5807 20.1291C42.1534 20.1291 41.8065 19.7814 41.8065 19.3549C41.8065 18.9283 42.1534 18.5807 42.5807 18.5807C43.008 18.5807 43.3549 18.9283 43.3549 19.3549C43.3549 19.7814 43.008 20.1291 42.5807 20.1291ZM41.8064 17.1747C40.9075 17.4953 40.258 18.3469 40.258 19.3549C40.258 20.3629 40.9076 21.2145 41.8064 21.535V32.5161H39.922C39.3816 32.5161 38.873 32.8041 38.5942 33.2679L35.0902 39.1077C34.817 38.863 34.4593 38.7098 34.0645 38.7098H33.507L29.4192 22.3573V17.8065C29.4192 16.9743 29.2249 16.1893 28.8889 15.4839H41.8063V17.1747H41.8064ZM43.3549 13.9355H27.785C26.8073 12.9793 25.4718 12.3871 24 12.3871C22.5282 12.3871 21.192 12.9793 20.2149 13.9355H15.4839V10.8387H43.3547V13.9355H43.3549ZM8.75069 2.40853L9.61089 1.54837H14.054L15.3461 9.30419C14.558 9.37461 13.9355 10.032 13.9355 10.8386V13.9354C13.9355 14.7545 14.5766 15.4202 15.3825 15.4737L14.0849 25.8487L11.7073 24.49C7.35095 22.0002 4.64512 17.3373 4.64512 12.3197C4.64512 8.57581 6.10294 5.05622 8.75069 2.40853ZM3.87093 30.9678C4.29825 30.9678 4.64512 31.3154 4.64512 31.742C4.64512 32.1685 4.29825 32.5161 3.87093 32.5161C3.44363 32.5161 3.09675 32.1685 3.09675 31.742C3.09675 31.3153 3.44363 30.9678 3.87093 30.9678ZM1.54837 38.7096H6.1935V40.258H1.54837V38.7096ZM10.286 45.9035C9.90584 46.2836 9.72 46.4516 9.28341 46.4516C8.84833 46.4516 8.6625 46.2836 8.28315 45.9043C7.86125 45.4824 7.28296 44.9033 6.18825 44.9033C5.49919 44.9033 5.01534 45.1333 4.64531 45.4089V41.8065H7.74204V37.1614H4.64512V33.9221C5.544 33.6016 6.1935 32.75 6.1935 31.742C6.1935 30.734 5.54391 29.8824 4.64512 29.5618V19.0645C5.99222 21.8609 8.1615 24.247 10.9393 25.8341L15.3344 28.3456L16.9416 15.4839H19.1109C18.7749 16.1893 18.5806 16.9743 18.5806 17.8065V22.3573L12.9297 44.9614C12.7617 44.9281 12.5845 44.9034 12.3839 44.9034C11.2885 44.9033 10.7094 45.4816 10.286 45.9035ZM14.4813 45.9035C14.4325 45.8547 14.3806 45.8036 14.3273 45.7517L19.9587 23.2257H21.4599L15.6534 46.4516H15.4839C15.048 46.4516 14.8614 46.2836 14.4813 45.9035ZM41.8064 46.4516V41.8065H43.3547V46.4516H41.8064ZM46.4516 46.4516H44.9033V40.258H46.4516V46.4516Z" fill="#FFDF75"/>
</g>
<defs>
<clipPath id="clip0_23_2456">
<rect width="48" height="48" fill="white"/>
</clipPath>
</defs>
</svg>
