<svg width="41" height="41" viewBox="0 0 41 41" fill="none" xmlns="http://www.w3.org/2000/svg">
<path d="M20.5 0C9.17816 0 0 9.17816 0 20.5C0 31.8218 9.17816 41 20.5 41C31.8218 41 41 31.8218 41 20.5C41 9.17816 31.8218 0 20.5 0ZM13.1328 8.14294C13.5552 8.11804 13.937 8.37049 14.2264 8.81859L17.0291 14.1338C17.3242 14.7636 17.1565 15.438 16.7163 15.888L15.4326 17.1717C15.3533 17.2803 15.3012 17.4026 15.2999 17.5371C15.7922 19.4427 17.2856 21.2005 18.6032 22.4093C19.9207 23.6182 21.3368 25.2548 23.1751 25.6425C23.4023 25.7059 23.6807 25.7286 23.8433 25.5775L25.3347 24.0585C25.8495 23.6683 26.5943 23.4792 27.144 23.7982H27.169L32.2264 26.7837C32.9688 27.249 33.0457 28.1484 32.5142 28.6955L29.0308 32.1514C28.5164 32.6789 27.833 32.8563 27.1691 32.8571C24.2325 32.7691 21.4578 31.3278 19.1788 29.8466C15.4379 27.1252 12.0064 23.7497 9.85213 19.6717C9.02591 17.9617 8.05534 15.7798 8.14796 13.8711C8.15623 13.153 8.3505 12.4496 8.85617 11.9868L12.3396 8.50337C12.6109 8.27247 12.8794 8.15791 13.1328 8.14294Z" fill="#FCCD46"/>
</svg>
