<svg width="33" height="33" viewBox="0 0 33 33"  xmlns="http://www.w3.org/2000/svg">
<path d="M21.592 23.7349L24.2615 11.1501C24.3705 10.6174 24.3069 10.2361 24.0708 10.0061C23.8347 9.77603 23.523 9.73366 23.1356 9.87893L7.44552 15.9262C7.09443 16.0593 6.85533 16.2107 6.72821 16.3801C6.60109 16.5496 6.58596 16.71 6.68281 16.8614C6.77966 17.0127 6.97337 17.1308 7.26392 17.2155L11.2772 18.4685L20.5932 12.6029C20.8475 12.4334 21.0412 12.3971 21.1743 12.4939C21.2591 12.5545 21.2349 12.6453 21.1017 12.7663L13.5654 19.5763L13.2748 23.7167C13.5533 23.7167 13.8257 23.5835 14.092 23.3172L16.0533 21.4286L20.1211 24.4249C20.8959 24.8608 21.3862 24.6308 21.592 23.7349ZM32.5424 16.2712C32.5424 18.4746 32.1126 20.5811 31.253 22.5908C30.3935 24.6005 29.2373 26.3317 27.7845 27.7845C26.3317 29.2373 24.6005 30.3935 22.5908 31.253C20.5811 32.1126 18.4746 32.5424 16.2712 32.5424C14.0678 32.5424 11.9613 32.1126 9.95157 31.253C7.94189 30.3935 6.21065 29.2373 4.75787 27.7845C3.30508 26.3317 2.14891 24.6005 1.28935 22.5908C0.429782 20.5811 0 18.4746 0 16.2712C0 14.0678 0.429782 11.9613 1.28935 9.95157C2.14891 7.94189 3.30508 6.21065 4.75787 4.75787C6.21065 3.30508 7.94189 2.14891 9.95157 1.28935C11.9613 0.429782 14.0678 0 16.2712 0C18.4746 0 20.5811 0.429782 22.5908 1.28935C24.6005 2.14891 26.3317 3.30508 27.7845 4.75787C29.2373 6.21065 30.3935 7.94189 31.253 9.95157C32.1126 11.9613 32.5424 14.0678 32.5424 16.2712Z"/>
</svg>
