<svg width="33" height="34" viewBox="0 0 33 34" fill="none" xmlns="http://www.w3.org/2000/svg">
<g opacity="0.4">
<path fill-rule="evenodd" clip-rule="evenodd" d="M24.0492 20.3145C23.6432 20.1125 21.6527 19.1389 21.2821 19.0033C20.9115 18.8691 20.6417 18.8027 20.3706 19.2067C20.1008 19.6081 19.3256 20.5166 19.0899 20.785C18.8528 21.0549 18.6171 21.0874 18.2125 20.8867C17.8078 20.6833 16.5026 20.2589 14.9562 18.8867C13.7531 17.8183 12.9397 16.4989 12.704 16.0949C12.4683 15.6922 12.6781 15.4738 12.8812 15.2732C13.0637 15.0928 13.2858 14.8027 13.4888 14.5681C13.6918 14.3322 13.7586 14.164 13.8935 13.8942C14.0297 13.6257 13.9616 13.3911 13.8594 13.1891C13.7586 12.9871 12.9493 11.0033 12.6114 10.1966C12.283 9.41148 11.9492 9.5186 11.7013 9.50504C11.4642 9.4942 11.1944 9.49148 10.9247 9.49148C10.6549 9.49148 10.2162 9.59182 9.8456 9.99589C9.47365 10.3986 8.42864 11.3735 8.42864 13.3572C8.42864 15.3396 9.8783 17.2555 10.0813 17.5254C10.2843 17.7938 12.9357 21.8643 16.9971 23.6094C17.9645 24.0243 18.7179 24.2725 19.3051 24.4569C20.2752 24.7647 21.1581 24.7213 21.8557 24.6169C22.6323 24.5016 24.2509 23.642 24.5888 22.701C24.9253 21.7599 24.9253 20.9532 24.8245 20.785C24.7236 20.6169 24.4539 20.5166 24.0479 20.3145H24.0492ZM16.662 30.3525H16.6565C14.2442 30.3529 11.8762 29.7075 9.80064 28.484L9.31015 28.1938L4.21184 29.5253L5.57293 24.5789L5.25276 24.0718C3.90411 21.9353 3.1904 19.4627 3.19408 16.9396C3.19681 9.54979 9.23794 3.5376 16.6674 3.5376C20.2643 3.5376 23.6459 4.9342 26.1883 7.46708C27.4423 8.7099 28.4362 10.1878 29.1125 11.8154C29.7888 13.443 30.1341 15.1879 30.1285 16.9491C30.1258 24.3389 24.0846 30.3525 16.662 30.3525ZM28.123 5.54302C26.6218 4.03919 24.8357 2.8468 22.8681 2.03495C20.9005 1.22311 18.7906 0.807949 16.6606 0.813532C7.73106 0.813532 0.460992 8.04742 0.458267 16.9383C0.454129 19.7677 1.19995 22.5483 2.62049 24.9993L0.322021 33.3559L8.91095 31.1131C11.2869 32.4014 13.9494 33.0765 16.6552 33.0765H16.662C25.5915 33.0765 32.8616 25.8426 32.8643 16.9505C32.8709 14.8315 32.4553 12.7323 31.6414 10.7742C30.8276 8.81618 29.6317 7.03816 28.123 5.54302Z" fill="#A5A3A3"/>
</g>
</svg>
